<svg xmlns="http://www.w3.org/2000/svg" viewBox="0 0 441.12 394.6"><defs><style>.cls-1{fill:#9c59e8;fill-rule:evenodd;}</style></defs><g id="Capa_2" data-name="Capa 2"><g id="Layer_1" data-name="Layer 1"><path class="cls-1" d="M50,118.39a68.41,68.41,0,0,1,125.3-38,78.84,78.84,0,0,0,36.48-34.8,118.39,118.39,0,1,0-93.37,191.19c128,0,157.6-234.15,246-165.42,75.12,58.43-98.85,219.72-142.08,257.9q-28.77-15-63.11-60.32a31.48,31.48,0,0,0-39.65,31.83q13.21,36,102.2,93.83C300,333.22,534.91,127.8,400.33,26.75,262.7-76.59,204.67,186.8,118.39,186.8A68.41,68.41,0,0,1,50,118.39Z"/></g></g></svg>