<svg width="360" height="214" viewBox="0 0 360 214" fill="none" xmlns="http://www.w3.org/2000/svg">
<path d="M139.747 180.632C119.592 176.53 59.9323 166.437 59.9323 119.046C59.9323 69.6507 94.9798 57.1673 142.549 57.1673C186.973 57.1673 175.739 8.34927 235.823 8.34927C286.695 8.34927 322.377 85.0633 259.953 147.493C222.059 185.381 162.532 185.286 139.747 180.632Z" fill="#C8A5EE"/>
<path opacity="0.9" d="M139.747 180.632C119.592 176.53 59.9323 166.437 59.9323 119.046C59.9323 69.6507 94.9798 57.1673 142.549 57.1673C186.973 57.1673 175.739 8.34927 235.823 8.34927C286.695 8.34927 322.377 85.0633 259.953 147.493C222.059 185.381 162.532 185.286 139.747 180.632Z" fill="white"/>
<path d="M177.444 213.632C245.334 213.632 300.37 210.419 300.37 206.455C300.37 202.492 245.334 199.278 177.444 199.278C109.554 199.278 54.5178 202.492 54.5178 206.455C54.5178 210.419 109.554 213.632 177.444 213.632Z" fill="#F5F5F5"/>
<path d="M231.34 188.076H164.967C163.69 188.089 162.424 187.838 161.248 187.339C160.072 186.841 159.012 186.105 158.134 185.178C157.255 184.251 156.578 183.152 156.143 181.951C155.709 180.75 155.527 179.472 155.609 178.198L164.232 13.6495C164.396 10.9941 165.56 8.49956 167.489 6.66715C169.418 4.83474 171.969 3.80032 174.629 3.7718H240.996C242.274 3.75781 243.541 4.00776 244.717 4.50599C245.894 5.00421 246.955 5.73999 247.834 6.66724C248.713 7.5945 249.391 8.69326 249.826 9.89472C250.261 11.0962 250.443 12.3745 250.36 13.6495L241.738 178.198C241.572 180.853 240.408 183.346 238.479 185.179C236.55 187.011 234 188.046 231.34 188.076Z" fill="#C8A5EE"/>
<path d="M240.654 10.3971H174.28C172.594 10.4177 170.978 11.0745 169.755 12.236C168.533 13.3975 167.794 14.978 167.687 16.661L159.381 175.161C159.329 175.969 159.444 176.78 159.719 177.542C159.995 178.303 160.424 179 160.982 179.588C161.539 180.176 162.211 180.643 162.957 180.959C163.703 181.275 164.506 181.434 165.316 181.425H231.689C233.375 181.404 234.992 180.748 236.214 179.586C237.437 178.425 238.176 176.844 238.283 175.161L246.588 16.661C246.641 15.8527 246.526 15.0423 246.25 14.2805C245.975 13.5187 245.545 12.822 244.988 12.2339C244.431 11.6459 243.759 11.1792 243.013 10.8632C242.267 10.5471 241.464 10.3884 240.654 10.3971Z" fill="#C8A5EE"/>
<path opacity="0.8" d="M240.654 10.3971H174.28C172.594 10.4177 170.978 11.0745 169.755 12.236C168.533 13.3975 167.794 14.978 167.687 16.661L159.381 175.161C159.329 175.969 159.444 176.78 159.719 177.542C159.995 178.303 160.424 179 160.982 179.588C161.539 180.176 162.211 180.643 162.957 180.959C163.703 181.275 164.506 181.434 165.316 181.425H231.689C233.375 181.404 234.992 180.748 236.214 179.586C237.437 178.425 238.176 176.844 238.283 175.161L246.588 16.661C246.641 15.8527 246.526 15.0423 246.25 14.2805C245.975 13.5187 245.545 12.822 244.988 12.2339C244.431 11.6459 243.759 11.1792 243.013 10.8632C242.267 10.5471 241.464 10.3884 240.654 10.3971Z" fill="white"/>
<path d="M246.436 3.7718H241.015C242.293 3.75781 243.56 4.00776 244.736 4.50599C245.913 5.00421 246.974 5.73999 247.853 6.66724C248.732 7.5945 249.41 8.69326 249.845 9.89472C250.28 11.0962 250.462 12.3745 250.379 13.6495L241.757 178.198C241.592 180.853 240.428 183.348 238.5 185.18C236.571 187.013 234.02 188.047 231.359 188.076H236.78C239.441 188.047 241.991 187.013 243.92 185.18C245.849 183.348 247.013 180.853 247.178 178.198L255.8 13.6495C255.882 12.3745 255.7 11.0962 255.266 9.89472C254.831 8.69326 254.153 7.5945 253.274 6.66724C252.395 5.73999 251.334 5.00421 250.157 4.50599C248.98 4.00776 247.714 3.75781 246.436 3.7718Z" fill="#C8A5EE"/>
<path opacity="0.4" d="M246.436 3.7718H241.015C242.293 3.75781 243.56 4.00776 244.736 4.50599C245.913 5.00421 246.974 5.73999 247.853 6.66724C248.732 7.5945 249.41 8.69326 249.845 9.89472C250.28 11.0962 250.462 12.3745 250.379 13.6495L241.757 178.198C241.592 180.853 240.428 183.348 238.5 185.18C236.571 187.013 234.02 188.047 231.359 188.076H236.78C239.441 188.047 241.991 187.013 243.92 185.18C245.849 183.348 247.013 180.853 247.178 178.198L255.8 13.6495C255.882 12.3745 255.7 11.0962 255.266 9.89472C254.831 8.69326 254.153 7.5945 253.274 6.66724C252.395 5.73999 251.334 5.00421 250.157 4.50599C248.98 4.00776 247.714 3.75781 246.436 3.7718Z" fill="white"/>
<path opacity="0.4" d="M174.274 10.3971L183.29 181.482H206.748L197.732 10.4288H174.274V10.3971Z" fill="white"/>
<path opacity="0.4" d="M210.995 181.45H216.277L207.261 10.3971H201.98L210.995 181.45Z" fill="white"/>
<path d="M177.622 0.887099H179.948C180.024 0.887099 180.097 0.857038 180.15 0.803534C180.204 0.75003 180.234 0.677462 180.234 0.601796C180.234 0.52613 180.204 0.453567 180.15 0.400062C180.097 0.346558 180.024 0.316498 179.948 0.316498H177.622C177.546 0.316498 177.473 0.346558 177.42 0.400062C177.366 0.453567 177.336 0.52613 177.336 0.601796C177.336 0.677462 177.366 0.75003 177.42 0.803534C177.473 0.857038 177.546 0.887099 177.622 0.887099Z" fill="#C8A5EE"/>
<path d="M160.707 19.6662C160.852 16.9527 160.738 14.0553 161.341 11.4242C162.685 5.31241 168.175 1.12801 174.325 0.918792C174.686 0.918792 174.693 0.335516 174.325 0.348196C171.633 0.40715 169.012 1.22827 166.768 2.71628C164.524 4.20429 162.747 6.29819 161.645 8.75503C160.149 12.1469 160.377 16.0714 160.174 19.6979C160.174 20.0656 160.726 20.0656 160.745 19.6979L160.707 19.6662Z" fill="#C8A5EE"/>
<path d="M212.695 44.3478H197.479C196.809 44.3553 196.146 44.2245 195.529 43.9636C194.913 43.7028 194.357 43.3175 193.896 42.8318C193.435 42.3462 193.08 41.7707 192.852 41.1413C192.624 40.512 192.529 39.8423 192.571 39.1744L193.37 23.9584C193.455 22.5671 194.064 21.2597 195.075 20.2996C196.085 19.3396 197.422 18.7984 198.816 18.7849H214.032C214.701 18.7774 215.365 18.9082 215.981 19.1691C216.597 19.43 217.153 19.8154 217.613 20.3012C218.073 20.7869 218.428 21.3625 218.655 21.9919C218.882 22.6212 218.977 23.2907 218.933 23.9584L218.141 39.1744C218.053 40.5646 217.443 41.8703 216.433 42.8297C215.423 43.7891 214.087 44.3314 212.695 44.3478Z" fill="white"/>
<path d="M202.982 33.8614C201.915 32.6937 201.286 31.1928 201.2 29.6136H201.137C200.503 29.6136 200.059 28.9353 200.103 28.1047C200.148 27.2742 200.68 26.5958 201.295 26.5958H201.454L201.568 26.19C205.239 25.9935 207.274 24.7826 208.396 23.7935C208.629 24.2891 208.964 24.73 209.379 25.0872C209.795 25.4444 210.28 25.7101 210.805 25.8667C210.862 26.1013 210.913 26.3485 210.951 26.5958H211.11C211.744 26.5958 212.194 27.2678 212.149 28.1047C212.105 28.9416 211.566 29.6136 210.951 29.6136H210.888C210.63 31.1347 209.926 32.5449 208.865 33.6649C209.733 33.9407 210.648 34.0336 211.553 33.9375C215.262 33.722 213.303 26.0949 211.306 23.3624C210.089 21.6886 209.404 20.9088 208.713 21.2195C207.94 20.7947 203.292 18.88 200.287 24.5163C197.168 30.3681 196.242 35.6937 202.982 33.8614Z" fill="#C8A5EE"/>
<path d="M213.195 37.9634L209.36 36.7398C209.36 36.7398 206.044 38.0078 205.251 41.1778C204.795 38.0078 201.612 36.7398 201.612 36.7398L197.65 37.9634C195.272 38.2931 194.118 40.3282 193.56 42.4331C194.021 43.0322 194.615 43.5159 195.295 43.8459C195.975 44.176 196.723 44.3435 197.479 44.3351H212.695C213.478 44.3314 214.251 44.1597 214.962 43.8316C215.673 43.5035 216.305 43.0266 216.816 42.4331C216.48 40.3282 215.535 38.2931 213.195 37.9634Z" fill="#C8A5EE"/>
<path d="M223.707 42.1098C223.729 41.8101 223.729 41.5092 223.707 41.2095L225.222 39.9035C225.087 39.2751 224.874 38.666 224.588 38.0902L222.642 38.1917C222.304 37.7128 221.898 37.2857 221.437 36.9237L221.64 34.9836C221.082 34.6612 220.486 34.4099 219.865 34.2355L218.445 35.662C218.149 35.6215 217.85 35.6003 217.551 35.5986C217.248 35.6003 216.945 35.6215 216.644 35.662L215.421 34.2228C214.776 34.3982 214.155 34.6493 213.569 34.9709V36.93C213.07 37.2926 212.62 37.7189 212.232 38.198L210.298 38.0965C209.948 38.6672 209.663 39.2754 209.448 39.9098L210.824 41.2158C210.765 41.5127 210.729 41.8137 210.716 42.1161C210.694 42.4137 210.694 42.7125 210.716 43.01L209.208 44.3161C209.346 44.9437 209.558 45.5525 209.842 46.1293L211.788 46.0279C212.129 46.5038 212.535 46.9305 212.993 47.2959L212.796 49.2359C213.352 49.5583 213.946 49.8096 214.565 49.984L215.947 48.5449C216.243 48.5854 216.542 48.6065 216.841 48.6083C217.142 48.6066 217.443 48.5854 217.741 48.5449L218.971 49.984C219.615 49.8065 220.236 49.5554 220.822 49.2359V47.2959C221.319 46.9299 221.768 46.504 222.16 46.0279L224.094 46.1293C224.445 45.5599 224.728 44.9513 224.937 44.3161L223.612 43.0037C223.663 42.7081 223.695 42.4095 223.707 42.1098ZM217.101 44.1449C216.837 44.15 216.575 44.1 216.331 43.9981C216.087 43.8963 215.867 43.7448 215.686 43.5534C215.504 43.3619 215.364 43.1347 215.274 42.8862C215.185 42.6376 215.149 42.3732 215.167 42.1098C215.202 41.5613 215.443 41.0463 215.842 40.6678C216.24 40.2893 216.767 40.0752 217.316 40.0683C217.578 40.0676 217.838 40.121 218.078 40.2252C218.318 40.3294 218.535 40.4821 218.713 40.6738C218.892 40.8654 219.029 41.0919 219.116 41.339C219.203 41.5861 219.238 41.8485 219.218 42.1098C219.185 42.6528 218.949 43.1635 218.557 43.5405C218.164 43.9174 217.645 44.1332 217.101 44.1449Z" fill="#C8A5EE"/>
<path opacity="0.4" d="M223.707 42.1098C223.729 41.8101 223.729 41.5092 223.707 41.2095L225.222 39.9035C225.087 39.2751 224.874 38.666 224.588 38.0902L222.642 38.1917C222.304 37.7128 221.898 37.2857 221.437 36.9237L221.64 34.9836C221.082 34.6612 220.486 34.4099 219.865 34.2355L218.445 35.662C218.149 35.6215 217.85 35.6003 217.551 35.5986C217.248 35.6003 216.945 35.6215 216.644 35.662L215.421 34.2228C214.776 34.3982 214.155 34.6493 213.569 34.9709V36.93C213.07 37.2926 212.62 37.7189 212.232 38.198L210.298 38.0965C209.948 38.6672 209.663 39.2754 209.448 39.9098L210.824 41.2158C210.765 41.5127 210.729 41.8137 210.716 42.1161C210.694 42.4137 210.694 42.7125 210.716 43.01L209.208 44.3161C209.346 44.9437 209.558 45.5525 209.842 46.1293L211.788 46.0279C212.129 46.5038 212.535 46.9305 212.993 47.2959L212.796 49.2359C213.352 49.5583 213.946 49.8096 214.565 49.984L215.947 48.5449C216.243 48.5854 216.542 48.6065 216.841 48.6083C217.142 48.6066 217.443 48.5854 217.741 48.5449L218.971 49.984C219.615 49.8065 220.236 49.5554 220.822 49.2359V47.2959C221.319 46.9299 221.768 46.504 222.16 46.0279L224.094 46.1293C224.445 45.5599 224.728 44.9513 224.937 44.3161L223.612 43.0037C223.663 42.7081 223.695 42.4095 223.707 42.1098ZM217.101 44.1449C216.837 44.15 216.575 44.1 216.331 43.9981C216.087 43.8963 215.867 43.7448 215.686 43.5534C215.504 43.3619 215.364 43.1347 215.274 42.8862C215.185 42.6376 215.149 42.3732 215.167 42.1098C215.202 41.5613 215.443 41.0463 215.842 40.6678C216.24 40.2893 216.767 40.0752 217.316 40.0683C217.578 40.0676 217.838 40.121 218.078 40.2252C218.318 40.3294 218.535 40.4821 218.713 40.6738C218.892 40.8654 219.029 41.0919 219.116 41.339C219.203 41.5861 219.238 41.8485 219.218 42.1098C219.185 42.6528 218.949 43.1635 218.557 43.5405C218.164 43.9174 217.645 44.1332 217.101 44.1449Z" fill="white"/>
<path d="M217.101 44.1449C216.837 44.15 216.575 44.1 216.331 43.9981C216.087 43.8963 215.868 43.7448 215.686 43.5534C215.504 43.3619 215.364 43.1347 215.274 42.8862C215.185 42.6376 215.149 42.3732 215.167 42.1098C215.202 41.5613 215.443 41.0463 215.842 40.6678C216.24 40.2893 216.767 40.0752 217.316 40.0683C217.578 40.0676 217.838 40.121 218.078 40.2252C218.318 40.3294 218.535 40.4821 218.713 40.6738C218.892 40.8654 219.029 41.0919 219.116 41.339C219.203 41.5861 219.238 41.8485 219.218 42.1098C219.185 42.6528 218.949 43.1635 218.557 43.5405C218.164 43.9174 217.645 44.1332 217.101 44.1449Z" fill="white"/>
<path d="M204.028 114.513H201.866L202.062 110.797H204.218L204.028 114.513Z" fill="#C8A5EE"/>
<path d="M213.861 114.513H211.705L212.029 108.388H214.184L213.861 114.513Z" fill="#C8A5EE"/>
<path d="M223.701 114.513H221.545L221.989 105.979H224.151L223.701 114.513Z" fill="#C8A5EE"/>
<path d="M233.54 114.513H231.379L231.955 103.576H234.111L233.54 114.513Z" fill="white"/>
<path d="M174.211 114.513H185.179C186.657 114.498 188.074 113.924 189.145 112.906C190.217 111.889 190.863 110.503 190.955 109.028C191 108.321 190.899 107.611 190.657 106.944C190.416 106.277 190.04 105.667 189.552 105.152C189.064 104.638 188.475 104.229 187.821 103.952C187.168 103.676 186.465 103.537 185.756 103.544H174.794C173.316 103.559 171.899 104.133 170.828 105.151C169.756 106.168 169.11 107.554 169.018 109.028C168.973 109.736 169.074 110.445 169.315 111.111C169.556 111.778 169.932 112.388 170.419 112.902C170.907 113.417 171.495 113.826 172.147 114.103C172.799 114.38 173.502 114.519 174.211 114.513Z" fill="white"/>
<path d="M174.724 104.768H185.692C187.022 104.753 188.305 105.253 189.274 106.163C190.243 107.073 190.823 108.322 190.891 109.65C190.923 109.453 190.942 109.25 190.955 109.047C191 108.34 190.899 107.63 190.657 106.963C190.416 106.296 190.039 105.686 189.551 105.171C189.063 104.657 188.475 104.248 187.821 103.971C187.168 103.695 186.465 103.556 185.756 103.563H174.794C173.316 103.578 171.899 104.152 170.828 105.17C169.756 106.187 169.109 107.573 169.018 109.047C169.018 109.25 169.018 109.453 169.018 109.65C169.248 108.297 169.945 107.068 170.987 106.176C172.03 105.284 173.352 104.786 174.724 104.768Z" fill="#C8A5EE"/>
<path opacity="0.3" d="M174.724 104.768H185.692C187.022 104.753 188.305 105.253 189.274 106.163C190.243 107.073 190.823 108.322 190.891 109.65C190.923 109.453 190.942 109.25 190.955 109.047C191 108.34 190.899 107.63 190.657 106.963C190.416 106.296 190.039 105.686 189.551 105.171C189.063 104.657 188.475 104.248 187.821 103.971C187.168 103.695 186.465 103.556 185.756 103.563H174.794C173.316 103.578 171.899 104.152 170.828 105.17C169.756 106.187 169.109 107.573 169.018 109.047C169.018 109.25 169.018 109.453 169.018 109.65C169.248 108.297 169.945 107.068 170.987 106.176C172.03 105.284 173.352 104.786 174.724 104.768Z" fill="white"/>
<path d="M178.225 112.844C180.451 110.674 180.587 107.201 178.526 105.087C176.466 102.973 172.991 103.018 170.764 105.188C168.538 107.358 168.402 110.831 170.462 112.945C172.522 115.059 175.998 115.014 178.225 112.844Z" fill="#C8A5EE"/>
<path d="M168.029 161.79H165.874L166.134 156.87H168.289L168.029 161.79Z" fill="#C8A5EE"/>
<path d="M176.03 160.585H173.875L173.976 158.677H176.132L176.03 160.585Z" fill="#C8A5EE"/>
<path d="M183.936 161.188H181.781L181.939 158.075H184.101L183.936 161.188Z" fill="#C8A5EE"/>
<path d="M191.906 160.585H189.744L189.845 158.677H192.007L191.906 160.585Z" fill="#C8A5EE"/>
<path d="M199.78 161.79H197.618L197.878 156.87H200.034L199.78 161.79Z" fill="#C8A5EE"/>
<path d="M207.775 160.585H205.619L205.72 158.677H207.876L207.775 160.585Z" fill="#C8A5EE"/>
<path d="M215.681 161.188H213.525L213.69 158.075H215.845L215.681 161.188Z" fill="#C8A5EE"/>
<path d="M223.65 160.585H221.494L221.589 158.677H223.751L223.65 160.585Z" fill="#C8A5EE"/>
<path d="M231.524 161.79H229.369L229.622 156.87H231.784L231.524 161.79Z" fill="#C8A5EE"/>
<g opacity="0.3">
<path d="M168.029 161.79H165.874L166.134 156.87H168.289L168.029 161.79Z" fill="black"/>
<path d="M176.03 160.585H173.875L173.976 158.677H176.132L176.03 160.585Z" fill="black"/>
<path d="M183.936 161.188H181.781L181.939 158.075H184.101L183.936 161.188Z" fill="black"/>
<path d="M191.906 160.585H189.744L189.845 158.677H192.007L191.906 160.585Z" fill="black"/>
<path d="M199.78 161.79H197.618L197.878 156.87H200.034L199.78 161.79Z" fill="black"/>
<path d="M207.775 160.585H205.619L205.721 158.677H207.876L207.775 160.585Z" fill="black"/>
<path d="M215.681 161.188H213.525L213.69 158.075H215.846L215.681 161.188Z" fill="black"/>
<path d="M223.65 160.585H221.495L221.59 158.677H223.752L223.65 160.585Z" fill="black"/>
<path d="M231.524 161.79H229.369L229.622 156.87H231.784L231.524 161.79Z" fill="black"/>
</g>
<path d="M193.687 162.601C193.719 162.056 193.814 160.173 193.846 159.634C193.877 159.095 193.973 157.206 193.998 156.667C194.023 156.284 193.969 155.9 193.839 155.539C193.709 155.177 193.506 154.847 193.242 154.568C192.979 154.289 192.66 154.067 192.307 153.917C191.954 153.766 191.573 153.69 191.189 153.694C190.389 153.703 189.622 154.015 189.043 154.567C188.463 155.118 188.113 155.869 188.064 156.667C188.032 157.206 187.937 159.089 187.905 159.634C187.873 160.18 187.778 162.056 187.753 162.601C187.729 162.984 187.783 163.368 187.914 163.728C188.044 164.089 188.247 164.418 188.511 164.697C188.775 164.975 189.093 165.196 189.445 165.346C189.798 165.496 190.178 165.572 190.562 165.569C191.361 165.559 192.127 165.248 192.706 164.698C193.286 164.148 193.636 163.399 193.687 162.601Z" fill="#C8A5EE"/>
<path d="M172.822 140.95H183.797C185.274 140.935 186.69 140.361 187.761 139.344C188.831 138.326 189.476 136.941 189.566 135.466C189.613 134.759 189.512 134.049 189.272 133.382C189.031 132.715 188.655 132.105 188.167 131.59C187.68 131.076 187.091 130.667 186.439 130.39C185.786 130.113 185.083 129.975 184.374 129.982H173.399C171.922 129.997 170.504 130.571 169.433 131.588C168.361 132.606 167.715 133.991 167.623 135.466C167.578 136.174 167.679 136.884 167.921 137.551C168.162 138.218 168.539 138.828 169.027 139.342C169.515 139.857 170.104 140.266 170.757 140.542C171.41 140.819 172.113 140.958 172.822 140.95Z" fill="white"/>
<path d="M173.336 131.187H184.304C185.632 131.172 186.915 131.672 187.883 132.582C188.851 133.492 189.429 134.742 189.496 136.069C189.53 135.869 189.552 135.668 189.56 135.466C189.606 134.759 189.506 134.049 189.265 133.382C189.024 132.715 188.649 132.105 188.161 131.59C187.674 131.076 187.085 130.667 186.432 130.39C185.779 130.113 185.076 129.975 184.367 129.982H173.399C171.922 129.997 170.504 130.571 169.433 131.588C168.361 132.606 167.715 133.991 167.623 135.466C167.623 135.669 167.623 135.872 167.623 136.069C167.851 134.714 168.548 133.482 169.593 132.59C170.637 131.697 171.962 131.201 173.336 131.187Z" fill="#C8A5EE"/>
<path opacity="0.3" d="M173.336 131.187H184.304C185.632 131.172 186.915 131.672 187.883 132.582C188.851 133.492 189.429 134.742 189.496 136.069C189.53 135.869 189.552 135.668 189.56 135.466C189.606 134.759 189.506 134.049 189.265 133.382C189.024 132.715 188.649 132.105 188.161 131.59C187.674 131.076 187.085 130.667 186.432 130.39C185.779 130.113 185.076 129.975 184.367 129.982H173.399C171.922 129.997 170.504 130.571 169.433 131.588C168.361 132.606 167.715 133.991 167.623 135.466C167.623 135.669 167.623 135.872 167.623 136.069C167.851 134.714 168.548 133.482 169.593 132.59C170.637 131.697 171.962 131.201 173.336 131.187Z" fill="white"/>
<path d="M178.598 135.466C178.689 133.991 179.336 132.606 180.407 131.588C181.479 130.571 182.896 129.997 184.374 129.982C185.083 129.975 185.786 130.113 186.438 130.39C187.091 130.667 187.68 131.076 188.167 131.59C188.655 132.105 189.031 132.715 189.271 133.382C189.512 134.049 189.612 134.759 189.566 135.466C189.476 136.941 188.831 138.326 187.761 139.344C186.69 140.361 185.274 140.935 183.797 140.95C183.088 140.958 182.384 140.819 181.731 140.542C181.078 140.266 180.489 139.857 180.001 139.342C179.513 138.828 179.137 138.218 178.895 137.551C178.654 136.884 178.553 136.174 178.598 135.466Z" fill="#C8A5EE"/>
<path d="M173.9 64.192H233.756C234.54 64.184 235.293 63.8795 235.862 63.3397C236.431 62.7999 236.775 62.0648 236.825 61.2819C236.848 60.9065 236.794 60.5303 236.666 60.1767C236.538 59.823 236.338 59.4997 236.079 59.2266C235.82 58.9536 235.508 58.7368 235.162 58.5897C234.816 58.4427 234.443 58.3685 234.067 58.3719H174.204C173.421 58.38 172.669 58.6847 172.101 59.2246C171.533 59.7645 171.19 60.4996 171.142 61.2819C171.117 61.6578 171.169 62.0348 171.297 62.3893C171.425 62.7437 171.624 63.0679 171.883 63.3413C172.143 63.6148 172.456 63.8315 172.803 63.9779C173.15 64.1244 173.523 64.1972 173.9 64.192Z" fill="white"/>
<path d="M174.204 59.6589H234.035C234.66 59.6534 235.268 59.8635 235.757 60.2538C236.245 60.6441 236.584 61.1908 236.717 61.8018C236.752 61.6365 236.777 61.4693 236.793 61.301C236.816 60.9255 236.762 60.5493 236.634 60.1957C236.506 59.8421 236.306 59.5187 236.047 59.2457C235.789 58.9726 235.476 58.7558 235.13 58.6088C234.784 58.4617 234.411 58.3876 234.035 58.3909H174.204C173.421 58.399 172.669 58.7037 172.101 59.2437C171.533 59.7836 171.19 60.5187 171.142 61.301C171.128 61.5611 171.154 61.8219 171.218 62.0744C171.372 61.3948 171.75 60.7868 172.292 60.3486C172.834 59.9103 173.508 59.6674 174.204 59.6589Z" fill="#C8A5EE"/>
<path opacity="0.3" d="M174.204 59.6589H234.035C234.66 59.6534 235.268 59.8635 235.757 60.2538C236.245 60.6441 236.584 61.1908 236.717 61.8018C236.752 61.6365 236.777 61.4693 236.793 61.301C236.816 60.9255 236.762 60.5493 236.634 60.1957C236.506 59.8421 236.306 59.5187 236.047 59.2457C235.789 58.9726 235.476 58.7558 235.13 58.6088C234.784 58.4617 234.411 58.3876 234.035 58.3909H174.204C173.421 58.399 172.669 58.7037 172.101 59.2437C171.533 59.7836 171.19 60.5187 171.142 61.301C171.128 61.5611 171.154 61.8219 171.218 62.0744C171.372 61.3948 171.75 60.7868 172.292 60.3486C172.834 59.9103 173.508 59.6674 174.204 59.6589Z" fill="white"/>
<path d="M188.569 65.1172C190.796 62.9476 190.932 59.4747 188.872 57.3604C186.813 55.246 183.337 55.2909 181.11 57.4605C178.883 59.6302 178.747 63.103 180.807 65.2174C182.867 67.3317 186.342 67.2869 188.569 65.1172Z" fill="#C8A5EE"/>
<path d="M232.71 132.093C232.727 131.821 232.688 131.547 232.595 131.29C232.502 131.034 232.357 130.799 232.169 130.601C231.981 130.402 231.754 130.245 231.502 130.139C231.251 130.032 230.98 129.979 230.706 129.982H213.043C212.474 129.989 211.929 130.21 211.517 130.602C211.104 130.993 210.855 131.526 210.818 132.093L210.463 138.839C210.445 139.112 210.484 139.385 210.577 139.642C210.67 139.899 210.816 140.134 211.004 140.332C211.192 140.53 211.419 140.687 211.67 140.794C211.922 140.9 212.193 140.954 212.466 140.95H230.129C230.698 140.944 231.243 140.722 231.656 140.331C232.069 139.939 232.318 139.407 232.355 138.839L232.71 132.093Z" fill="#C8A5EE"/>
<path d="M212.98 131.187H230.643C230.916 131.184 231.187 131.237 231.439 131.343C231.691 131.45 231.918 131.607 232.106 131.805C232.294 132.003 232.439 132.238 232.532 132.495C232.625 132.752 232.664 133.025 232.647 133.298L232.71 132.093C232.727 131.821 232.688 131.547 232.595 131.29C232.502 131.034 232.357 130.799 232.169 130.601C231.981 130.402 231.754 130.245 231.502 130.139C231.251 130.032 230.98 129.979 230.706 129.982H213.043C212.475 129.989 211.929 130.21 211.517 130.602C211.104 130.993 210.855 131.526 210.818 132.093L210.755 133.298C210.791 132.73 211.041 132.198 211.453 131.806C211.866 131.415 212.411 131.194 212.98 131.187Z" fill="#C8A5EE"/>
<path opacity="0.3" d="M212.98 131.187H230.643C230.916 131.184 231.187 131.237 231.439 131.343C231.691 131.45 231.918 131.607 232.106 131.805C232.294 132.003 232.439 132.238 232.532 132.495C232.625 132.752 232.664 133.025 232.647 133.298L232.71 132.093C232.727 131.821 232.688 131.547 232.595 131.29C232.502 131.034 232.357 130.799 232.169 130.601C231.981 130.402 231.754 130.245 231.502 130.139C231.251 130.032 230.98 129.979 230.706 129.982H213.043C212.475 129.989 211.929 130.21 211.517 130.602C211.104 130.993 210.855 131.526 210.818 132.093L210.755 133.298C210.791 132.73 211.041 132.198 211.453 131.806C211.866 131.415 212.411 131.194 212.98 131.187Z" fill="black"/>
<path d="M221.792 132.093C221.81 131.821 221.771 131.547 221.678 131.29C221.585 131.034 221.44 130.799 221.251 130.601C221.063 130.402 220.836 130.245 220.585 130.139C220.333 130.032 220.062 129.979 219.789 129.982H213.043C212.474 129.989 211.929 130.21 211.517 130.602C211.104 130.993 210.855 131.526 210.818 132.093L210.463 138.839C210.445 139.112 210.484 139.385 210.577 139.642C210.67 139.899 210.816 140.134 211.004 140.332C211.192 140.53 211.419 140.687 211.67 140.794C211.922 140.9 212.193 140.954 212.466 140.95H219.212C219.781 140.944 220.326 140.722 220.738 140.331C221.151 139.939 221.401 139.407 221.437 138.839L221.792 132.093Z" fill="white"/>
<path d="M217.107 137.324H214.952L215.148 133.609H217.304L217.107 137.324Z" fill="#C8A5EE"/>
<path d="M232.78 82.2547H172.955C172.171 82.2642 171.42 82.5691 170.851 83.1086C170.282 83.6481 169.938 84.3824 169.887 85.1647C169.862 85.5404 169.916 85.917 170.044 86.271C170.172 86.6251 170.371 86.9488 170.63 87.2221C170.889 87.4953 171.202 87.7121 171.548 87.8588C171.895 88.0055 172.268 88.0791 172.645 88.0748H232.488C233.272 88.0681 234.025 87.7639 234.593 87.2237C235.161 86.6835 235.504 85.9476 235.55 85.1647C235.575 84.788 235.521 84.4103 235.392 84.0554C235.264 83.7005 235.063 83.3761 234.802 83.1027C234.542 82.8292 234.228 82.6127 233.88 82.4668C233.532 82.3208 233.157 82.2486 232.78 82.2547Z" fill="#C8A5EE"/>
<path opacity="0.3" d="M172.955 83.5227H232.78C233.404 83.5157 234.012 83.7244 234.501 84.1137C234.989 84.5029 235.329 85.0488 235.461 85.6592C235.503 85.4973 235.528 85.3317 235.537 85.1647C235.562 84.7891 235.509 84.4124 235.381 84.0584C235.253 83.7044 235.053 83.3806 234.794 83.1074C234.535 82.8341 234.223 82.6174 233.876 82.4706C233.529 82.3239 233.156 82.2504 232.78 82.2547H172.955C172.498 82.2447 172.044 82.3396 171.628 82.5319C171.213 82.7242 170.847 83.0089 170.558 83.3642C170.269 83.7196 170.065 84.1362 169.962 84.5823C169.859 85.0284 169.859 85.4922 169.963 85.9382C170.119 85.2586 170.499 84.6511 171.041 84.2131C171.584 83.7751 172.258 83.5319 172.955 83.5227Z" fill="black"/>
<path d="M223.498 90.6488H218.914C218.503 90.6529 218.096 90.5726 217.717 90.4129C217.338 90.2533 216.996 90.0176 216.712 89.7204C216.428 89.4233 216.208 89.0711 216.065 88.6855C215.923 88.2999 215.861 87.8892 215.884 87.4788L216.124 82.895C216.184 82.0398 216.563 81.2384 217.187 80.6508C217.811 80.0631 218.634 79.7325 219.491 79.725H224.075C224.486 79.7208 224.893 79.8011 225.271 79.9609C225.65 80.1206 225.991 80.3564 226.275 80.6537C226.558 80.9509 226.778 81.3032 226.92 81.6888C227.061 82.0743 227.122 82.4849 227.099 82.895L226.858 87.4788C226.799 88.3329 226.421 89.1334 225.798 89.7209C225.175 90.3084 224.354 90.6397 223.498 90.6488Z" fill="white"/>
<path d="M222.712 87.0223H220.556L220.753 83.3071H222.908L222.712 87.0223Z" fill="#C8A5EE"/>
<path d="M128.392 65.815L120.27 75.008C120.904 79.3953 122.229 92.126 122.229 92.126C121.012 93.7364 118.038 93.2799 118.038 93.2799C115.61 87.2327 114.616 80.7051 115.135 74.2092C115.705 68.2686 123.326 56.584 128.753 53.2872C129.638 52.7513 130.597 52.3476 131.6 52.0889L132.671 51.9621L128.867 66.094L128.392 65.815Z" fill="#C8A5EE"/>
<path opacity="0.6" d="M128.392 65.815L120.27 75.008C120.904 79.3953 122.229 92.126 122.229 92.126C121.012 93.7364 118.038 93.2799 118.038 93.2799C115.61 87.2327 114.616 80.7051 115.135 74.2092C115.705 68.2686 123.326 56.584 128.753 53.2872C129.638 52.7513 130.597 52.3476 131.6 52.0889L132.671 51.9621L128.867 66.094L128.392 65.815Z" fill="black"/>
<path d="M121.785 93.1278L123.751 95.2263C123.815 95.2963 123.864 95.3781 123.896 95.4672L125.05 98.7133C125.12 98.884 125.12 99.0752 125.05 99.2459L124.492 100.393C124.447 100.489 124.379 100.572 124.295 100.637C124.212 100.702 124.114 100.747 124.011 100.767L119.997 101.598C119.907 101.616 119.815 101.617 119.725 101.599C119.634 101.581 119.549 101.545 119.473 101.494C119.397 101.442 119.331 101.376 119.281 101.3C119.231 101.223 119.196 101.137 119.18 101.046L118.406 96.7733C118.388 96.6875 118.388 96.599 118.406 96.5133L118.939 93.7744C118.966 93.6379 119.034 93.5128 119.133 93.4156C119.233 93.3183 119.359 93.2533 119.497 93.2292L121.164 92.9312C121.276 92.9103 121.391 92.9174 121.499 92.9516C121.608 92.9859 121.706 93.0464 121.785 93.1278Z" fill="#FAB27B"/>
<path d="M123.478 92.6459L117.227 95.4799L117.144 92.4557L122.914 90.2367L123.478 92.6459Z" fill="#C8A5EE"/>
<path opacity="0.5" d="M123.478 92.6459L117.227 95.4799L117.144 92.4557L122.914 90.2367L123.478 92.6459Z" fill="white"/>
<path d="M121.056 103.83C117.328 117.144 118.907 136.798 116.859 149.979C115.452 159.057 105.828 188.938 105.828 188.938L114.323 191.512C114.323 191.512 124.924 165.195 127.003 157.352C130.338 144.628 135.347 120.485 135.347 120.485C135.347 120.485 137.217 113.638 136.367 112.877C135.518 112.116 121.056 103.83 121.056 103.83Z" fill="#C8A5EE"/>
<path opacity="0.3" d="M130.414 112.972L136.558 114.963L134.256 125.741C134.256 125.741 135.385 115.432 130.414 112.972Z" fill="black"/>
<path d="M107.533 188.551L106.011 193.376L110.132 195.227L112.174 190.104L107.533 188.551Z" fill="#FAB27B"/>
<path opacity="0.2" d="M106.633 191.41L110.982 193.091L111.559 191.639L106.988 190.288L106.633 191.41Z" fill="black"/>
<path d="M105.916 186.294L116.308 189.134L114.425 192.482L105.333 189.8L105.916 186.294Z" fill="#C8A5EE"/>
<path opacity="0.5" d="M105.916 186.294L116.308 189.134L114.425 192.482L105.333 189.8L105.916 186.294Z" fill="white"/>
<path d="M111.014 195.886C110.993 195.872 110.977 195.851 110.966 195.828C110.956 195.804 110.953 195.779 110.957 195.753C110.962 195.729 110.974 195.707 110.992 195.69C111.01 195.673 111.033 195.662 111.058 195.658C111.153 195.658 113.22 195.341 113.943 195.88C114.011 195.928 114.069 195.989 114.114 196.06C114.158 196.131 114.189 196.21 114.203 196.292C114.227 196.385 114.221 196.483 114.187 196.573C114.153 196.663 114.092 196.74 114.012 196.793C113.485 196.922 112.928 196.854 112.446 196.603C111.949 196.406 111.469 196.167 111.014 195.886ZM111.445 195.886C112.307 196.356 113.531 196.825 113.879 196.597C113.93 196.597 113.987 196.514 113.955 196.337C113.95 196.285 113.932 196.236 113.903 196.193C113.874 196.15 113.836 196.114 113.791 196.089C113.73 196.041 113.661 196.002 113.588 195.975C112.886 195.805 112.159 195.771 111.445 195.874V195.886Z" fill="#C8A5EE"/>
<path d="M110.957 195.855C110.945 195.835 110.94 195.814 110.94 195.791C110.94 195.769 110.945 195.747 110.957 195.728C110.988 195.671 111.629 194.416 112.446 194.149C112.563 194.109 112.687 194.093 112.81 194.101C112.933 194.11 113.053 194.144 113.163 194.2C113.467 194.359 113.505 194.555 113.461 194.695C113.353 195.278 111.774 195.874 111.096 195.905C111.08 195.912 111.062 195.912 111.045 195.905C111.027 195.905 111.01 195.9 110.995 195.891C110.979 195.882 110.966 195.87 110.957 195.855ZM112.985 194.39C112.84 194.335 112.68 194.335 112.535 194.39C112.005 194.676 111.575 195.119 111.305 195.658C112.047 195.538 113.138 195.024 113.207 194.676C113.207 194.644 113.207 194.555 113.03 194.454H112.96L112.985 194.39Z" fill="#C8A5EE"/>
<path d="M110.76 195.012L105.466 192.938C105.369 192.898 105.262 192.893 105.161 192.923C105.061 192.953 104.974 193.017 104.915 193.103L102.271 197.04C102.158 197.207 102.115 197.412 102.152 197.61C102.189 197.808 102.302 197.984 102.467 198.099L102.613 198.175C104.515 198.885 106.271 199.443 108.649 200.382C111.451 201.485 110.608 201.542 113.886 202.879C115.864 203.685 117.113 201.567 116.314 201.13C112.649 199.133 112.706 197.807 111.755 195.848C111.539 195.455 111.184 195.157 110.76 195.012Z" fill="#263238"/>
<path d="M145.3 192.482L145.395 197.129L149.89 197.56L150.163 192.482H145.3Z" fill="#FAB27B"/>
<path opacity="0.2" d="M150.049 194.637L150.112 193.42L145.326 193.617L145.357 195.037L150.049 194.637Z" fill="black"/>
<path d="M121.056 103.83C122.464 97.122 128.081 91.1497 128.081 91.1497L149.637 92.5318C149.637 92.5318 150.994 106.378 151.311 111.007C151.945 120.352 154.569 134.864 154.639 144.234C154.734 156.914 151.831 190.561 151.831 190.561L143.69 191.525C143.69 191.525 143.81 160.401 142.479 148.666C141.471 139.79 135.397 115.407 135.397 115.407C135.397 115.407 118.704 115.077 121.056 103.83Z" fill="#C8A5EE"/>
<path d="M142.282 190.212L153.035 189.553L152.331 193.325L142.859 193.718L142.282 190.212Z" fill="#C8A5EE"/>
<path opacity="0.5" d="M142.282 190.212L153.035 189.553L152.331 193.325L142.859 193.718L142.282 190.212Z" fill="white"/>
<path d="M150.867 197.884C150.842 197.877 150.82 197.864 150.803 197.844C150.786 197.825 150.775 197.801 150.772 197.776C150.767 197.752 150.771 197.726 150.782 197.704C150.794 197.682 150.812 197.665 150.835 197.655C150.918 197.611 152.775 196.641 153.631 196.92C153.792 196.965 153.929 197.072 154.012 197.218C154.066 197.297 154.095 197.391 154.095 197.487C154.095 197.584 154.066 197.678 154.012 197.757C153.555 198.056 153.004 198.175 152.465 198.093C151.927 198.068 151.393 197.998 150.867 197.884ZM151.273 197.731C152.236 197.89 153.549 197.934 153.809 197.605C153.847 197.567 153.878 197.491 153.809 197.338C153.787 197.291 153.754 197.25 153.713 197.218C153.673 197.186 153.625 197.165 153.574 197.154C153.498 197.129 153.419 197.117 153.339 197.116C152.617 197.187 151.916 197.395 151.273 197.731Z" fill="#C8A5EE"/>
<path d="M150.797 197.871C150.781 197.857 150.768 197.839 150.759 197.82C150.75 197.8 150.746 197.778 150.746 197.757C150.746 197.693 150.956 196.299 151.64 195.779C151.737 195.702 151.848 195.647 151.967 195.615C152.086 195.584 152.21 195.577 152.331 195.595C152.667 195.639 152.769 195.817 152.775 195.956C152.864 196.546 151.571 197.63 150.937 197.858C150.929 197.863 150.92 197.865 150.911 197.865C150.902 197.865 150.894 197.863 150.886 197.858C150.873 197.866 150.858 197.871 150.843 197.874C150.828 197.876 150.812 197.875 150.797 197.871ZM152.243 195.823C152.085 195.817 151.93 195.867 151.805 195.963C151.401 196.396 151.138 196.942 151.051 197.529C151.685 197.173 152.572 196.324 152.553 195.969C152.553 195.937 152.553 195.848 152.312 195.823H152.243Z" fill="#C8A5EE"/>
<path d="M150.36 197.135L144.654 196.907C144.549 196.904 144.447 196.936 144.363 196.998C144.278 197.06 144.218 197.149 144.191 197.25L142.98 201.833C142.954 201.93 142.947 202.031 142.961 202.13C142.974 202.229 143.006 202.325 143.056 202.411C143.106 202.498 143.173 202.573 143.252 202.634C143.332 202.695 143.422 202.74 143.519 202.765C143.571 202.772 143.625 202.772 143.677 202.765C145.725 202.81 147.551 202.765 150.106 202.873C153.111 202.994 152.338 203.323 155.875 203.507C158.006 203.621 158.488 201.212 157.594 201.06C153.473 200.375 153.092 199.107 151.558 197.567C151.222 197.285 150.798 197.132 150.36 197.135Z" fill="#263238"/>
<path d="M143.62 46.6175C143.246 47.8158 142.308 49.8382 143.62 51.6451L137.147 51.0111C137.147 51.0111 137.838 46.2371 138.238 44.6711C138.498 43.6631 138.834 42.5662 142.238 43.5172C144.191 44.0815 143.874 45.806 143.62 46.6175Z" fill="#FAB27B"/>
<path d="M137.781 44.8487C134.218 42.0971 126.686 34.6412 133.914 28.1301C139.93 22.7094 145.459 25.8794 147.342 29.5439C149.453 33.6459 154.24 44.6077 143.62 46.6175C141.668 46.9852 139.632 46.2752 137.781 44.8487Z" fill="#FAB27B"/>
<path d="M132.69 51.2267C132.69 51.2267 137.686 46.8394 147.177 52.6278L147.044 53.9846L132.779 52.6025L132.69 51.2267Z" fill="#C8A5EE"/>
<path opacity="0.5" d="M132.69 51.2267C132.69 51.2267 137.686 46.8394 147.177 52.6278L147.044 53.9846L132.779 52.6025L132.69 51.2267Z" fill="white"/>
<path opacity="0.1" d="M142.257 45.3242C142.257 46.7887 142.707 47.5495 143.234 47.9299C143.331 47.4839 143.461 47.0453 143.62 46.6175C142.346 46.0596 142.257 45.3242 142.257 45.3242Z" fill="black"/>
<path d="M146.061 52.4567C144.007 52.018 141.931 51.6879 139.842 51.4676C136.164 51.0365 133.356 50.7512 131.327 51.6451C128.094 53.0716 127.681 53.9846 127.681 53.9846L128.315 64.4646C128.82 69.5208 128.911 74.6096 128.588 79.6806C128.588 79.725 128.334 89.6661 122.964 95.0044C125.197 96.8151 127.84 98.0496 130.661 98.5992L133.692 91.3462L134.649 98.9542C134.649 98.9542 145.56 102.188 154.563 99.2015C154.563 99.2015 149.637 91.3272 151.222 83.2754C151.989 79.4017 152.547 77.5694 152.978 74.5262C153.227 72.8851 153.227 71.2158 152.978 69.5747L150.956 55.7535C150.956 55.7535 147.38 52.78 146.061 52.4567Z" fill="#C8A5EE"/>
<path opacity="0.6" d="M146.061 52.4567C144.007 52.018 141.931 51.6879 139.842 51.4676C136.164 51.0365 133.356 50.7512 131.327 51.6451C128.094 53.0716 127.681 53.9846 127.681 53.9846L128.315 64.4646C128.82 69.5208 128.911 74.6096 128.588 79.6806C128.588 79.725 128.334 89.6661 122.964 95.0044C125.197 96.8151 127.84 98.0496 130.661 98.5992L133.692 91.3462L134.649 98.9542C134.649 98.9542 145.56 102.188 154.563 99.2015C154.563 99.2015 149.637 91.3272 151.222 83.2754C151.989 79.4017 152.547 77.5694 152.978 74.5262C153.227 72.8851 153.227 71.2158 152.978 69.5747L150.956 55.7535C150.956 55.7535 147.38 52.78 146.061 52.4567Z" fill="black"/>
<path d="M152.331 78.4507C152.591 77.0495 152.82 75.7308 152.965 74.5579C153.214 72.9168 153.214 71.2475 152.965 69.6064L150.068 66.3476C150.068 66.3476 152.858 70.2657 152.331 78.4507Z" fill="black"/>
<path d="M178.205 63.558L180.208 57.852C180.247 57.7371 180.329 57.6416 180.437 57.5857L183.575 55.9817C183.66 55.9413 183.755 55.9264 183.848 55.9388C183.942 55.9512 184.03 55.9903 184.101 56.0514L186.339 58.0168C186.428 58.0951 186.483 58.2039 186.495 58.3214C186.507 58.439 186.474 58.5566 186.403 58.6508L184.088 61.694C184.062 61.7291 184.041 61.7675 184.025 61.8082C183.848 62.2583 182.656 65.105 180.12 65.815L180.025 65.8531L179.175 66.3032C179.072 66.3662 178.948 66.3868 178.83 66.3608C178.712 66.3348 178.608 66.2642 178.541 66.1637L177.457 64.6485C177.416 64.5919 177.388 64.5268 177.376 64.4581C177.363 64.3894 177.366 64.3187 177.384 64.2513C177.402 64.1838 177.435 64.1213 177.481 64.0683C177.526 64.0153 177.583 63.973 177.647 63.9447L177.932 63.8116C177.994 63.792 178.05 63.7591 178.097 63.7153C178.144 63.6714 178.181 63.6177 178.205 63.558Z" fill="#FAB27B"/>
<path d="M146.004 52.4503C149.802 53.3873 153.132 55.6662 155.381 58.8664C158.203 62.4291 161.391 65.6866 164.891 68.5856C164.891 68.5856 172.22 67.026 176.842 63.0254L179.555 67.0767C179.555 67.0767 168.422 75.4709 163.889 75.0334C160.022 74.6593 152.972 69.6254 152.972 69.6254L150.068 66.3666L146.004 52.4503Z" fill="#C8A5EE"/>
<path opacity="0.6" d="M146.004 52.4503C149.802 53.3873 153.132 55.6662 155.381 58.8664C158.203 62.4291 161.391 65.6866 164.891 68.5856C164.891 68.5856 172.22 67.026 176.842 63.0254L179.555 67.0767C179.555 67.0767 168.422 75.4709 163.889 75.0334C160.022 74.6593 152.972 69.6254 152.972 69.6254L150.068 66.3666L146.004 52.4503Z" fill="black"/>
<path d="M177.095 62.5182L181.166 67.5712L178.44 68.294L175.193 63.5453L177.095 62.5182Z" fill="#C8A5EE"/>
<path opacity="0.5" d="M177.095 62.5182L181.166 67.5712L178.44 68.294L175.193 63.5453L177.095 62.5182Z" fill="white"/>
<path d="M149.986 38.3058V40.2712L151.311 40.0873L149.986 38.3058Z" fill="#E07F50"/>
<path d="M139.594 50.0728C136.545 50.3835 127.548 50.561 128.62 43.961C129.691 37.3611 128.233 34.0897 131.029 29.4425C133.825 24.7952 139.651 23.4385 144.895 24.8142C149.263 25.9554 149.618 29.0113 148.432 30.8499C147.247 32.6885 146.714 33.0309 146.923 34.3369C147.133 35.643 146.34 36.3721 145.998 36.987C145.621 37.4303 145.142 37.7761 144.603 37.9951C144.367 39.2779 144.448 40.5988 144.838 41.8435C145.472 44.259 146.765 49.331 139.594 50.0728Z" fill="black"/>
<path d="M143.652 24.884C145.118 25.0359 146.545 25.4458 147.868 26.0949C148.901 26.6275 149.935 27.42 150.169 28.6309C150.505 30.3744 149.155 32.0292 148.084 33.2338C147.912 33.4303 148.242 33.6585 148.407 33.4683C150.309 31.3381 151.78 28.3456 148.99 26.3042C147.405 25.2626 145.581 24.6389 143.69 24.4909C143.638 24.4859 143.586 24.5017 143.545 24.535C143.505 24.5683 143.479 24.6163 143.474 24.6684C143.469 24.7206 143.485 24.7726 143.519 24.813C143.552 24.8534 143.6 24.8789 143.652 24.884Z" fill="black"/>
<path d="M131.048 29.4044C129.038 32.0102 128.943 35.4147 128.512 38.5213C128.227 40.715 125.754 44.9945 127.504 47.0613C127.669 47.2579 127.986 47.0106 127.821 46.8141C126.623 45.4002 127.821 43.3207 128.227 41.8562C128.61 40.4163 128.871 38.9465 129.007 37.4626C129.279 34.8061 129.641 31.839 131.346 29.6453C131.504 29.4425 131.181 29.2015 131.023 29.4044H131.048Z" fill="black"/>
<path d="M148.623 34.5652C148.585 34.6476 148.654 34.5018 148.667 34.4827C148.706 34.4068 148.755 34.3364 148.813 34.2735C148.9 34.1684 149.016 34.0916 149.147 34.0532C149.279 34.0148 149.418 34.0165 149.548 34.058C149.789 34.115 149.891 33.7473 149.65 33.6902C149.362 33.6196 149.059 33.66 148.801 33.8034C148.542 33.9469 148.347 34.1827 148.255 34.4637C148.16 34.6856 148.527 34.7871 148.623 34.5652Z" fill="black"/>
<path d="M147.063 37.4562C147.469 38.6735 147.063 39.9035 146.194 40.2014C145.326 40.4994 144.292 39.7513 143.849 38.5277C143.405 37.3041 143.849 36.0804 144.717 35.7825C145.586 35.4845 146.651 36.2326 147.063 37.4562Z" fill="#FAB27B"/>
<path d="M150.068 34.394C150.011 34.8505 149.567 34.9456 149.339 34.9836C149.111 35.0217 149.092 35.2816 149.136 35.6176C149.18 35.9536 149.339 36.1946 149.491 36.1692C149.643 36.1438 149.738 35.8712 149.7 35.5352C149.684 35.444 149.659 35.3548 149.624 35.2689C150.341 34.8378 150.068 34.394 150.068 34.394Z" fill="black"/>
</svg>
