<svg width="360" height="214" viewBox="0 0 360 214" fill="none" xmlns="http://www.w3.org/2000/svg">
<g clip-path="url(#clip0_410_1056)">
<path d="M295.627 106.287C302.314 136.821 283.637 156.548 257.774 155.632C245.373 155.194 230.566 141.54 218.39 138.5C202.483 134.517 188.723 139.675 173.525 140.431C135.712 142.303 136.209 126.851 110.73 106.925C92.8347 92.9193 63.9562 94.4526 54.3919 69.9266C42.6735 39.9444 76.2645 25.4545 101.783 29.9017C131.105 34.9994 139.224 -1.56068 184.01 2.48827C228.021 6.47085 286.208 60.2755 295.627 106.287Z" fill="#C8A5EE"/>
<path opacity="0.9" d="M295.627 106.287C302.314 136.821 283.637 156.548 257.774 155.632C245.373 155.194 230.566 141.54 218.39 138.5C202.483 134.517 188.723 139.675 173.525 140.431C135.712 142.303 136.209 126.851 110.73 106.925C92.8347 92.9193 63.9562 94.4526 54.3919 69.9266C42.6735 39.9444 76.2645 25.4545 101.783 29.9017C131.105 34.9994 139.224 -1.56068 184.01 2.48827C228.021 6.47085 286.208 60.2755 295.627 106.287Z" fill="white"/>
<path d="M180.299 213.976C251.273 213.976 308.81 210.612 308.81 206.463C308.81 202.313 251.273 198.949 180.299 198.949C109.324 198.949 51.7871 202.313 51.7871 206.463C51.7871 210.612 109.324 213.976 180.299 213.976Z" fill="#F5F5F5"/>
<path d="M187.198 172.783H102.644C101.284 172.764 99.9823 172.231 98.9989 171.29C98.0155 170.349 97.4235 169.071 97.3417 167.712L89.7592 20.6555C89.7172 20.0013 89.8105 19.3456 90.0334 18.7293C90.2562 18.113 90.6038 17.5494 91.0544 17.0739C91.5049 16.5985 92.0486 16.2213 92.6515 15.9661C93.2544 15.7109 93.9034 15.5832 94.5579 15.5909H179.112C180.471 15.6086 181.773 16.1406 182.757 17.08C183.74 18.0194 184.333 19.2968 184.415 20.6555L191.984 167.712C192.026 168.365 191.933 169.02 191.711 169.636C191.489 170.252 191.142 170.815 190.693 171.291C190.244 171.767 189.702 172.145 189.101 172.402C188.5 172.658 187.852 172.788 187.198 172.783V172.783Z" fill="#C8A5EE"/>
<path opacity="0.8" d="M187.198 172.783H102.644C101.284 172.764 99.9823 172.231 98.9989 171.29C98.0155 170.349 97.4235 169.071 97.3417 167.712L89.7592 20.6555C89.7172 20.0013 89.8105 19.3456 90.0334 18.7293C90.2562 18.113 90.6038 17.5494 91.0544 17.0739C91.5049 16.5985 92.0486 16.2213 92.6515 15.9661C93.2544 15.7109 93.9034 15.5832 94.5579 15.5909H179.112C180.471 15.6086 181.773 16.1406 182.757 17.08C183.74 18.0194 184.333 19.2968 184.415 20.6555L191.984 167.712C192.026 168.365 191.933 169.02 191.711 169.636C191.489 170.252 191.142 170.815 190.693 171.291C190.244 171.767 189.702 172.145 189.101 172.402C188.5 172.658 187.852 172.788 187.198 172.783V172.783Z" fill="white"/>
<path d="M170.767 10.7986H161.415V11.4623H170.767V10.7986Z" fill="#C8A5EE"/>
<path d="M158.174 10.7986H154.747V11.4623H158.174V10.7986Z" fill="#C8A5EE"/>
<path d="M190.837 163.451H109.975C108.673 163.438 107.424 162.932 106.479 162.034C105.535 161.136 104.965 159.914 104.884 158.612L97.6466 17.9606C97.6064 17.3346 97.6957 16.707 97.9091 16.1172C98.1225 15.5274 98.4552 14.9882 98.8865 14.5332C99.3177 14.0783 99.8382 13.7175 100.415 13.4734C100.992 13.2294 101.613 13.1074 102.24 13.1151H183.102C184.404 13.1295 185.653 13.6373 186.596 14.5364C187.539 15.4354 188.107 16.6589 188.186 17.9606L195.424 158.612C195.464 159.237 195.375 159.864 195.162 160.453C194.949 161.042 194.616 161.58 194.186 162.035C193.755 162.489 193.235 162.849 192.659 163.093C192.083 163.337 191.463 163.458 190.837 163.451Z" fill="#C8A5EE"/>
<path d="M190.837 160.218H109.975C109.501 160.202 109.049 160.012 108.706 159.684C108.362 159.356 108.151 158.913 108.112 158.439L100.868 17.7946C100.851 17.6076 100.875 17.4191 100.937 17.2418C100.998 17.0644 101.097 16.9022 101.226 16.7658C101.355 16.6297 101.512 16.5227 101.685 16.4518C101.859 16.3808 102.046 16.3476 102.233 16.3543H183.096C183.569 16.3722 184.019 16.5631 184.361 16.8909C184.703 17.2187 184.913 17.6607 184.951 18.1332L192.229 158.778C192.245 158.964 192.221 159.152 192.16 159.329C192.098 159.505 192 159.667 191.872 159.803C191.744 159.939 191.588 160.046 191.415 160.118C191.243 160.189 191.057 160.224 190.87 160.218H190.837ZM102.233 16.5202C102.068 16.5149 101.904 16.544 101.751 16.6057C101.599 16.6674 101.46 16.7604 101.345 16.8786C101.234 17.0012 101.15 17.145 101.096 17.3013C101.043 17.4576 101.021 17.6232 101.034 17.788L108.271 158.433C108.308 158.863 108.501 159.266 108.814 159.564C109.126 159.862 109.537 160.036 109.968 160.052H190.831C190.994 160.059 191.158 160.03 191.31 159.968C191.462 159.907 191.599 159.813 191.712 159.694C191.825 159.573 191.912 159.43 191.966 159.273C192.019 159.116 192.039 158.95 192.024 158.784L184.792 18.1398C184.757 17.7096 184.566 17.3073 184.254 17.0089C183.943 16.7104 183.533 16.5366 183.102 16.5202H102.233Z" fill="white"/>
<path opacity="0.3" d="M162.553 67.6138C171.75 58.1623 171.151 42.6398 161.215 32.9432C151.279 23.2466 135.769 23.048 126.572 32.4995C117.374 41.951 117.973 57.4735 127.909 67.1701C137.845 76.8667 153.356 77.0653 162.553 67.6138Z" fill="white"/>
<path d="M164.391 50.0601C164.577 53.322 163.922 56.5769 162.489 59.5121C160.938 62.6605 158.53 65.306 155.544 67.1438C152.557 68.9817 149.112 69.9371 145.607 69.9C141.975 69.8672 138.412 68.8933 135.267 67.0729C132.122 65.2526 129.5 62.6478 127.658 59.5121C125.942 56.6446 124.954 53.3991 124.782 50.0601C124.618 47.4995 124.984 44.9327 125.857 42.5202C126.73 40.1078 128.09 37.9017 129.854 36.04C131.617 34.1784 133.745 32.7012 136.104 31.7009C138.464 30.7007 141.004 30.1989 143.566 30.2269C148.898 30.2826 154.011 32.3596 157.875 36.0398C161.74 39.7199 164.068 44.7297 164.391 50.0601V50.0601Z" fill="white"/>
<path d="M162.469 59.5121C160.918 62.6605 158.511 65.306 155.524 67.1438C152.537 68.9817 149.093 69.9371 145.587 69.9C141.955 69.8673 138.392 68.8933 135.247 67.073C132.102 65.2526 129.481 62.6478 127.639 59.5121C132.675 56.0286 138.658 54.1753 144.779 54.202C151.064 54.2257 157.207 56.0699 162.469 59.5121V59.5121Z" fill="#C8A5EE"/>
<path d="M150.702 49.5989C154.016 46.1938 153.799 40.6002 150.218 37.1053C146.637 33.6105 141.047 33.5378 137.734 36.9429C134.42 40.3481 134.637 45.9417 138.218 49.4365C141.8 52.9314 147.389 53.0041 150.702 49.5989Z" fill="#C8A5EE"/>
<path d="M179.245 108.73H115.927C115.375 108.724 114.846 108.51 114.447 108.129C114.047 107.749 113.806 107.23 113.773 106.679L113.295 97.3864C113.279 97.1221 113.317 96.8572 113.408 96.6083C113.498 96.3595 113.639 96.132 113.821 95.9401C114.004 95.7482 114.223 95.596 114.467 95.4931C114.711 95.3902 114.973 95.3388 115.237 95.342H178.555C179.106 95.3476 179.634 95.5615 180.033 95.9406C180.433 96.3198 180.674 96.8363 180.709 97.3864L181.187 106.679C181.204 106.944 181.167 107.21 181.077 107.459C180.986 107.709 180.846 107.937 180.663 108.13C180.481 108.322 180.261 108.475 180.017 108.579C179.773 108.682 179.51 108.733 179.245 108.73V108.73Z" fill="white"/>
<path opacity="0.3" d="M159.858 90.2112H133.412C132.858 90.207 132.326 89.9921 131.925 89.6099C131.524 89.2278 131.283 88.7071 131.251 88.1535L131.151 86.1622C131.134 85.8973 131.172 85.6317 131.262 85.3821C131.352 85.1324 131.492 84.9041 131.675 84.7115C131.857 84.5188 132.077 84.3661 132.321 84.2628C132.566 84.1595 132.828 84.1079 133.093 84.1112H159.533C160.084 84.1169 160.613 84.3316 161.013 84.7122C161.413 85.0928 161.653 85.6109 161.687 86.1622L161.793 88.1535C161.809 88.4179 161.771 88.6828 161.681 88.9319C161.591 89.1811 161.451 89.4091 161.27 89.6019C161.089 89.7947 160.87 89.9483 160.627 90.0531C160.384 90.1579 160.122 90.2117 159.858 90.2112V90.2112Z" fill="black"/>
<path opacity="0.3" d="M169.694 153.408H130.078C129.14 153.396 128.241 153.03 127.561 152.383C126.881 151.735 126.471 150.854 126.412 149.917L126.18 145.337C126.157 144.887 126.225 144.436 126.381 144.014C126.537 143.591 126.778 143.204 127.088 142.878C127.398 142.551 127.771 142.291 128.185 142.113C128.599 141.936 129.044 141.845 129.494 141.845H169.097C170.035 141.857 170.934 142.223 171.614 142.871C172.294 143.518 172.704 144.399 172.762 145.337L172.994 149.917C173.018 150.366 172.95 150.815 172.794 151.237C172.639 151.659 172.4 152.044 172.091 152.371C171.783 152.697 171.411 152.958 170.999 153.136C170.587 153.314 170.143 153.407 169.694 153.408V153.408Z" fill="black"/>
<path d="M180.405 131.205H117.08C116.529 131.198 116.001 130.983 115.602 130.602C115.202 130.222 114.961 129.705 114.926 129.154L114.449 119.861C114.432 119.597 114.471 119.332 114.561 119.082C114.651 118.833 114.792 118.605 114.974 118.413C115.156 118.22 115.376 118.068 115.62 117.964C115.864 117.86 116.126 117.808 116.391 117.81H179.709C180.26 117.816 180.789 118.031 181.189 118.411C181.588 118.792 181.829 119.31 181.863 119.861L182.347 129.154C182.362 129.419 182.323 129.683 182.232 129.932C182.142 130.181 182.001 130.408 181.819 130.601C181.637 130.793 181.418 130.946 181.174 131.05C180.931 131.154 180.669 131.206 180.405 131.205V131.205Z" fill="white"/>
<path d="M123.96 102.033C123.978 102.326 123.936 102.62 123.836 102.896C123.735 103.172 123.579 103.425 123.377 103.638C123.175 103.851 122.931 104.02 122.661 104.134C122.39 104.249 122.099 104.306 121.806 104.303C121.196 104.296 120.612 104.057 120.171 103.636C119.729 103.215 119.463 102.642 119.426 102.033C119.407 101.74 119.449 101.446 119.548 101.17C119.648 100.894 119.803 100.641 120.005 100.428C120.207 100.215 120.45 100.046 120.72 99.9311C120.99 99.8167 121.281 99.7593 121.574 99.7627C122.184 99.7699 122.769 100.008 123.212 100.429C123.654 100.85 123.922 101.423 123.96 102.033V102.033Z" fill="#263238"/>
<path d="M130.939 102.033C130.959 102.326 130.917 102.62 130.818 102.896C130.718 103.172 130.563 103.425 130.361 103.638C130.159 103.851 129.916 104.02 129.646 104.134C129.376 104.249 129.085 104.306 128.792 104.303C128.182 104.297 127.597 104.059 127.155 103.638C126.713 103.217 126.448 102.643 126.412 102.033C126.393 101.74 126.435 101.446 126.534 101.17C126.634 100.894 126.789 100.641 126.991 100.428C127.193 100.215 127.436 100.046 127.706 99.9311C127.976 99.8167 128.267 99.7593 128.56 99.7627C129.17 99.7684 129.755 100.006 130.197 100.428C130.639 100.849 130.904 101.423 130.939 102.033V102.033Z" fill="#263238"/>
<path d="M137.879 102.033C137.898 102.326 137.857 102.62 137.757 102.896C137.658 103.172 137.502 103.425 137.3 103.638C137.099 103.851 136.855 104.02 136.585 104.134C136.315 104.249 136.025 104.306 135.731 104.303C135.121 104.296 134.536 104.058 134.094 103.637C133.651 103.216 133.384 102.643 133.345 102.033C133.327 101.739 133.369 101.446 133.47 101.169C133.57 100.893 133.726 100.641 133.928 100.428C134.13 100.215 134.374 100.046 134.645 99.9311C134.915 99.8167 135.206 99.7594 135.499 99.7627C136.109 99.77 136.693 100.008 137.135 100.429C137.576 100.85 137.842 101.423 137.879 102.033Z" fill="#263238"/>
<path d="M144.871 102.033C144.89 102.326 144.847 102.619 144.748 102.895C144.648 103.17 144.492 103.423 144.291 103.636C144.089 103.848 143.846 104.018 143.577 104.132C143.307 104.247 143.017 104.305 142.724 104.303C142.114 104.296 141.529 104.058 141.086 103.637C140.644 103.216 140.376 102.643 140.338 102.033C140.32 101.74 140.362 101.447 140.462 101.171C140.562 100.895 140.717 100.643 140.919 100.43C141.12 100.217 141.363 100.048 141.633 99.9331C141.902 99.8183 142.192 99.7603 142.485 99.7627C143.096 99.7699 143.681 100.008 144.123 100.429C144.566 100.85 144.833 101.423 144.871 102.033V102.033Z" fill="#263238"/>
<path d="M125.133 124.494C125.152 124.787 125.111 125.081 125.011 125.357C124.912 125.634 124.756 125.886 124.555 126.099C124.353 126.313 124.11 126.482 123.84 126.596C123.57 126.711 123.279 126.768 122.986 126.765C122.375 126.757 121.79 126.519 121.348 126.098C120.905 125.677 120.638 125.105 120.6 124.494C120.581 124.201 120.624 123.907 120.724 123.631C120.824 123.355 120.98 123.102 121.183 122.889C121.385 122.676 121.629 122.507 121.899 122.393C122.169 122.278 122.46 122.221 122.754 122.224C123.363 122.232 123.948 122.47 124.389 122.891C124.831 123.312 125.096 123.885 125.133 124.494Z" fill="#263238"/>
<path d="M132.099 124.494C132.117 124.787 132.075 125.081 131.975 125.356C131.875 125.632 131.72 125.884 131.518 126.097C131.317 126.31 131.074 126.479 130.804 126.594C130.535 126.709 130.245 126.767 129.952 126.765C129.341 126.757 128.756 126.519 128.314 126.098C127.871 125.677 127.604 125.105 127.566 124.494C127.546 124.202 127.588 123.908 127.687 123.632C127.787 123.355 127.942 123.103 128.144 122.89C128.346 122.676 128.589 122.507 128.859 122.393C129.129 122.278 129.42 122.221 129.713 122.224C130.323 122.232 130.908 122.47 131.351 122.891C131.794 123.312 132.061 123.884 132.099 124.494Z" fill="#263238"/>
<path d="M139.065 124.494C139.084 124.788 139.041 125.082 138.941 125.358C138.841 125.634 138.684 125.887 138.482 126.1C138.28 126.313 138.036 126.482 137.766 126.596C137.496 126.711 137.205 126.768 136.911 126.765C136.301 126.759 135.716 126.521 135.274 126.1C134.832 125.678 134.567 125.105 134.532 124.494C134.512 124.202 134.554 123.908 134.653 123.632C134.753 123.355 134.909 123.103 135.11 122.89C135.312 122.676 135.555 122.507 135.825 122.393C136.095 122.278 136.386 122.221 136.679 122.224C137.289 122.232 137.875 122.47 138.317 122.891C138.76 123.312 139.027 123.884 139.065 124.494Z" fill="#263238"/>
<path d="M146.025 124.494C146.044 124.787 146.003 125.081 145.903 125.357C145.803 125.634 145.648 125.886 145.446 126.099C145.245 126.313 145.001 126.482 144.731 126.596C144.461 126.711 144.17 126.768 143.877 126.765C143.267 126.757 142.682 126.519 142.239 126.098C141.797 125.677 141.53 125.105 141.491 124.494C141.473 124.201 141.515 123.907 141.616 123.631C141.716 123.355 141.872 123.102 142.074 122.889C142.276 122.676 142.52 122.507 142.791 122.393C143.061 122.278 143.352 122.221 143.645 122.224C144.255 122.23 144.841 122.468 145.282 122.889C145.724 123.311 145.99 123.884 146.025 124.494Z" fill="#263238"/>
<path d="M152.991 124.495C153.01 124.788 152.969 125.081 152.869 125.357C152.769 125.634 152.614 125.886 152.412 126.099C152.211 126.313 151.967 126.482 151.697 126.596C151.427 126.711 151.137 126.768 150.843 126.765C150.233 126.757 149.648 126.519 149.205 126.098C148.763 125.678 148.496 125.105 148.457 124.495C148.439 124.202 148.481 123.908 148.581 123.633C148.681 123.357 148.837 123.105 149.038 122.892C149.239 122.679 149.483 122.51 149.752 122.395C150.022 122.28 150.312 122.222 150.605 122.224C151.215 122.232 151.8 122.47 152.243 122.891C152.685 123.312 152.952 123.884 152.991 124.495Z" fill="#263238"/>
<path d="M159.957 124.494C159.975 124.788 159.933 125.082 159.833 125.358C159.732 125.634 159.576 125.887 159.374 126.1C159.172 126.313 158.928 126.482 158.658 126.596C158.387 126.711 158.096 126.768 157.803 126.765C157.193 126.757 156.609 126.519 156.167 126.098C155.726 125.677 155.46 125.104 155.423 124.494C155.404 124.202 155.446 123.908 155.545 123.632C155.645 123.355 155.8 123.103 156.002 122.89C156.204 122.676 156.447 122.507 156.717 122.393C156.987 122.278 157.278 122.221 157.571 122.224C158.181 122.232 158.766 122.47 159.209 122.891C159.651 123.312 159.919 123.884 159.957 124.494V124.494Z" fill="#263238"/>
<path d="M235.311 47.4117C235.477 47.664 235.563 47.7967 235.669 47.9759L235.968 48.4671C236.16 48.799 236.332 49.1309 236.498 49.4561C236.829 50.1199 237.161 50.7837 237.426 51.4474C237.981 52.7657 238.459 54.1155 238.857 55.4897C239.66 58.2044 240.188 60.9929 240.435 63.8133L240.481 64.3377C240.487 64.4438 240.487 64.5502 240.481 64.6563V65.0081C240.492 65.4697 240.466 65.9315 240.402 66.3887C240.275 67.2364 240.052 68.0669 239.739 68.8646C239.157 70.2892 238.385 71.6288 237.446 72.8471C235.693 75.0949 233.613 77.0662 231.275 78.6949L229.446 76.5509C231.11 74.6682 232.584 72.6249 233.847 70.451C234.415 69.4648 234.86 68.4126 235.172 67.318C235.299 66.8544 235.372 66.3778 235.391 65.8975C235.411 65.6923 235.411 65.4855 235.391 65.2802V65.1409C235.398 65.0791 235.398 65.0168 235.391 64.955L235.311 64.4904C234.885 62.0166 234.283 59.5766 233.509 57.189C233.124 56.0008 232.654 54.8525 232.183 53.7308C231.951 53.1666 231.686 52.6156 231.421 52.0846L231.01 51.3014L230.804 50.9363L230.632 50.6443L235.311 47.4117Z" fill="#803E3C"/>
<path d="M229.147 78.7082L231.547 83.7859L233.449 79.4914C233.449 79.4914 231.759 75.7743 229.472 76.1195L229.147 78.7082Z" fill="#7F3E3B"/>
<path d="M233.263 84.0382L235.172 80.9052L233.449 79.4914L231.547 83.7859L233.263 84.0382Z" fill="#7F3E3B"/>
<path d="M222.473 201.139C222.969 201.127 223.462 201.06 223.944 200.94C223.969 200.933 223.991 200.919 224.008 200.9C224.026 200.882 224.038 200.859 224.044 200.834C224.048 200.808 224.044 200.782 224.034 200.759C224.023 200.735 224.006 200.715 223.984 200.701C223.792 200.575 222.108 199.486 221.459 199.778C221.387 199.812 221.325 199.864 221.28 199.929C221.234 199.995 221.207 200.071 221.2 200.15C221.18 200.27 221.19 200.393 221.228 200.509C221.266 200.625 221.331 200.729 221.419 200.814C221.719 201.046 222.094 201.162 222.473 201.139V201.139ZM223.566 200.748C222.605 200.947 221.876 200.913 221.578 200.655C221.517 200.594 221.473 200.519 221.448 200.437C221.424 200.354 221.421 200.267 221.439 200.183C221.439 200.071 221.505 200.037 221.552 200.017C221.909 199.858 222.884 200.329 223.566 200.748V200.748Z" fill="#C8A5EE"/>
<path d="M223.911 200.94H223.977C223.997 200.927 224.014 200.909 224.025 200.889C224.037 200.868 224.043 200.844 224.044 200.821C224.044 200.754 224.044 199.155 223.434 198.617C223.359 198.55 223.271 198.499 223.174 198.469C223.078 198.44 222.977 198.431 222.877 198.444C222.773 198.445 222.671 198.482 222.591 198.548C222.51 198.615 222.454 198.707 222.433 198.809C222.307 199.44 223.315 200.635 223.845 200.94H223.911ZM222.963 198.69C223.017 198.688 223.07 198.698 223.12 198.717C223.17 198.736 223.216 198.765 223.255 198.803C223.605 199.319 223.785 199.931 223.772 200.555C223.242 200.13 222.612 199.228 222.692 198.849C222.692 198.789 222.738 198.71 222.904 198.69H222.963Z" fill="#C8A5EE"/>
<path d="M216.216 198.431C216.232 198.412 216.242 198.388 216.245 198.364C216.249 198.339 216.246 198.314 216.236 198.291C216.227 198.268 216.211 198.248 216.191 198.233C216.171 198.218 216.148 198.208 216.123 198.205C215.851 198.205 213.472 198.092 212.928 198.677V198.716C212.884 198.774 212.854 198.842 212.844 198.914C212.833 198.986 212.842 199.06 212.869 199.128C212.904 199.242 212.967 199.346 213.051 199.43C213.135 199.514 213.239 199.577 213.353 199.613C214.122 199.851 215.48 198.982 216.223 198.444L216.216 198.431ZM213.127 198.849C213.426 198.531 214.738 198.444 215.719 198.458C214.692 199.161 213.837 199.493 213.406 199.36C213.331 199.337 213.262 199.296 213.207 199.241C213.151 199.185 213.11 199.117 213.088 199.042C213.074 199.016 213.067 198.988 213.067 198.959C213.067 198.93 213.074 198.901 213.088 198.876L213.127 198.849Z" fill="#C8A5EE"/>
<path d="M216.216 198.431C216.226 198.41 216.231 198.388 216.231 198.365C216.231 198.342 216.226 198.319 216.216 198.298C216.183 198.245 215.44 196.971 214.566 196.705C214.44 196.668 214.308 196.658 214.178 196.674C214.048 196.69 213.923 196.732 213.81 196.798C213.492 196.984 213.472 197.203 213.512 197.342C213.684 197.96 215.374 198.504 216.103 198.497C216.126 198.497 216.149 198.491 216.168 198.479C216.188 198.467 216.204 198.451 216.216 198.431ZM213.836 197.104C213.874 197.067 213.916 197.035 213.962 197.011C214.044 196.958 214.136 196.925 214.233 196.912C214.329 196.899 214.427 196.908 214.519 196.938C215.096 197.09 215.633 197.834 215.878 198.199C215.089 198.112 213.889 197.628 213.79 197.256C213.782 197.228 213.782 197.198 213.79 197.17C213.798 197.141 213.814 197.116 213.836 197.097V197.104Z" fill="#C8A5EE"/>
<path d="M223.513 27.9701C222.851 31.289 221.419 38.4642 223.719 40.6679C223.719 40.6679 222.817 43.9867 216.7 43.9867C209.966 43.9867 213.485 40.6679 213.485 40.6679C217.157 39.7918 217.064 37.0571 216.421 34.4949L223.513 27.9701Z" fill="#7F3E3B"/>
<path d="M212.299 20.1908C212.336 20.1969 212.374 20.1969 212.411 20.1908C212.443 20.1753 212.471 20.1537 212.494 20.1272C212.517 20.1007 212.535 20.0699 212.546 20.0366C212.557 20.0032 212.561 19.968 212.559 19.933C212.556 19.8979 212.547 19.8637 212.531 19.8324C212.353 19.4538 212.086 19.1235 211.754 18.8694C211.422 18.6153 211.034 18.4448 210.622 18.3721C210.553 18.3663 210.484 18.3872 210.43 18.4303C210.376 18.4735 210.34 18.5358 210.33 18.6044C210.323 18.6739 210.343 18.7435 210.386 18.7982C210.43 18.8528 210.493 18.8882 210.562 18.8965V18.8965C210.887 18.959 211.193 19.0981 211.453 19.3025C211.714 19.5068 211.922 19.7704 212.06 20.0714C212.086 20.1106 212.121 20.1423 212.163 20.1633C212.205 20.1843 212.252 20.1938 212.299 20.1908Z" fill="#263238"/>
<path d="M210.29 23.1048C209.769 24.0737 209.118 24.9669 208.355 25.7598C208.561 25.949 208.806 26.0909 209.073 26.1757C209.34 26.2605 209.622 26.2862 209.899 26.251L210.29 23.1048Z" fill="#630F0F"/>
<path d="M210.788 22.3547C210.735 22.7994 210.45 23.1313 210.164 23.0981C209.879 23.0649 209.681 22.6733 209.734 22.2286C209.787 21.7839 210.072 21.452 210.396 21.4852C210.721 21.5184 210.834 21.91 210.788 22.3547Z" fill="#263238"/>
<path d="M210.483 21.525L209.462 21.1135C209.462 21.1135 209.893 21.9896 210.483 21.525Z" fill="#263238"/>
<path d="M222.068 197.17L216.66 198.431L213.372 185.979L218.781 184.718L222.068 197.17Z" fill="#7F3E3B"/>
<path d="M230.367 200.807H224.819L225.25 187.937H230.804L230.367 200.807Z" fill="#7F3E3B"/>
<path d="M224.375 200.163H230.612C230.72 200.162 230.825 200.201 230.907 200.272C230.989 200.343 231.042 200.441 231.056 200.548L231.765 205.487C231.779 205.612 231.767 205.738 231.729 205.858C231.69 205.978 231.627 206.088 231.543 206.181C231.459 206.275 231.357 206.349 231.242 206.4C231.127 206.451 231.003 206.477 230.877 206.476C228.703 206.443 227.656 206.31 224.912 206.31C223.222 206.31 220.756 206.489 218.43 206.489C216.103 206.489 215.971 204.179 216.945 203.973C221.293 203.031 221.982 201.743 223.447 200.509C223.706 200.287 224.035 200.165 224.375 200.163Z" fill="#263238"/>
<path d="M216.183 197.601L221.85 194.993C221.946 194.947 222.056 194.938 222.158 194.967C222.261 194.996 222.349 195.062 222.406 195.152L225.117 199.347C225.181 199.455 225.221 199.575 225.235 199.699C225.249 199.824 225.237 199.95 225.199 200.069C225.162 200.189 225.1 200.299 225.017 200.393C224.935 200.487 224.833 200.562 224.72 200.615C222.731 201.491 221.724 201.816 219.232 202.965C217.701 203.668 214.592 205.288 212.484 206.283C210.377 207.279 209.29 205.215 210.085 204.617C213.644 201.962 214.665 200.057 215.48 198.325C215.618 198.006 215.868 197.748 216.183 197.601V197.601Z" fill="#263238"/>
<path opacity="0.2" d="M213.372 185.979L215.136 192.656L220.478 191.136L218.788 184.718L213.372 185.979Z" fill="black"/>
<path opacity="0.2" d="M230.804 187.937H225.25L225.031 194.575H230.586L230.804 187.937Z" fill="black"/>
<path d="M233.323 41.9291C235.63 42.4402 238.095 50.7438 238.095 50.7438L231.573 57.6934C231.573 57.6934 226.158 49.8876 227.265 47.0201C228.385 44.0266 230.572 41.3317 233.323 41.9291Z" fill="#263238"/>
<path opacity="0.4" d="M229.638 47.2193C228.471 46.1506 227.683 46.4692 227.146 47.3188C226.615 49.788 229.757 54.9587 231.023 56.9168C231.606 54.5804 232.276 49.6553 229.638 47.2193Z" fill="black"/>
<path d="M204.1 42.095C204.1 42.095 201.449 43.0243 206.751 75.6482H229.286C228.909 66.4617 228.895 60.7932 233.263 41.9291C230.106 41.2766 226.905 40.8551 223.686 40.6679C220.279 40.4221 216.859 40.4221 213.452 40.6679C209.084 41.0728 204.1 42.095 204.1 42.095Z" fill="#263238"/>
<path opacity="0.4" d="M203.894 54.6136C204.04 56.2 204.232 57.9855 204.484 60.0033C206.334 58.3373 207.845 53.598 207.288 50.8368C205.967 51.9106 204.822 53.185 203.894 54.6136Z" fill="black"/>
<path d="M206.307 49.6553C205.091 52.7203 203.722 55.7221 202.204 58.6492C200.704 61.6821 198.929 64.5705 196.902 67.2782L196.478 67.8025L196.265 68.0614C196.193 68.1477 196.133 68.2273 196.02 68.3468C195.621 68.7826 195.177 69.1743 194.695 69.515C193.842 70.106 192.909 70.571 191.924 70.8957C190.206 71.445 188.423 71.762 186.622 71.8382C183.248 71.9725 179.871 71.6714 176.573 70.9421L176.938 68.1543C178.462 68.1543 180.06 68.1543 181.578 68.0282C183.102 67.9531 184.621 67.7846 186.125 67.5237C187.521 67.3055 188.887 66.9223 190.194 66.3821C190.722 66.1563 191.215 65.8569 191.659 65.4926C191.828 65.3505 191.982 65.1903 192.116 65.0147C192.116 65.0147 192.196 64.9085 192.249 64.8355L192.401 64.6165L192.713 64.1784C194.376 61.6057 195.858 58.9197 197.147 56.1402C198.473 53.3192 199.798 50.392 201.011 47.5113L206.307 49.6553Z" fill="#803E3C"/>
<path d="M204.1 42.095C201.336 42.7588 197.942 50.3522 197.942 50.3522L203.669 58.782C203.669 58.782 211.298 49.1641 210.39 46.2302C209.462 43.1703 207.474 41.2719 204.1 42.095Z" fill="#263238"/>
<path d="M178.529 68.5791L173.75 66.3688L173.273 71.128C173.273 71.128 177.25 72.3029 179.238 71.128L178.529 68.5791Z" fill="#7F3E3B"/>
<path d="M170.893 65.8909L170.436 69.515L173.273 71.128L173.75 66.3688L170.893 65.8909Z" fill="#7F3E3B"/>
<path d="M225.913 22.6799C224.899 28.1029 224.587 30.4261 221.485 32.8886C216.846 36.5924 210.383 34.163 209.76 28.5476C209.19 23.4897 210.94 15.4715 216.554 13.9448C217.791 13.6031 219.094 13.5844 220.34 13.8905C221.586 14.1965 222.733 14.817 223.671 15.6929C224.61 16.5688 225.308 17.6709 225.701 18.894C226.093 20.1172 226.166 21.4206 225.913 22.6799V22.6799Z" fill="#7F3E3B"/>
<path d="M214.015 23.8216C213.704 26.5895 213.585 33.778 219.656 34.0037C227.086 34.2759 229.313 27.917 228.65 25.3748C232.521 22.2219 233.078 16.799 228.73 12.6505C224.382 8.50197 214.811 10.8185 212.16 14.8608C208.799 19.8722 214.015 23.8216 214.015 23.8216Z" fill="#263238"/>
<path d="M221.459 14.2634C221.101 11.3429 221.379 9.33168 224.11 9.33168C226.841 9.33168 230.566 10.3207 231.931 13.1151C233.296 15.9096 233.409 20.2838 229.598 19.839C225.787 19.3943 221.889 17.7548 221.459 14.2634Z" fill="#C8A5EE"/>
<path d="M225.687 13.5598C225.025 10.0817 228.133 0.284587 235.682 -0.379175C239.182 -0.677869 240.799 3.0923 238.997 3.71624C242.311 3.67641 244.432 8.06389 241.343 8.72101C243.782 10.2875 243.179 13.5001 239.699 15.0799C237.108 16.2746 226.582 18.3788 225.687 13.5598Z" fill="#263238"/>
<path d="M233.754 17.2968C231.321 17.2968 228.783 16.9384 227.205 15.883C226.764 15.6168 226.393 15.2491 226.122 14.8104C225.851 14.3718 225.688 13.8748 225.648 13.3607C225.646 13.3171 225.66 13.2743 225.689 13.241C225.717 13.2078 225.757 13.1865 225.8 13.1815C225.822 13.1787 225.844 13.1806 225.866 13.1869C225.887 13.1932 225.906 13.2039 225.923 13.2183C225.94 13.2326 225.954 13.2504 225.963 13.2703C225.973 13.2903 225.978 13.312 225.979 13.3342C226.019 13.7981 226.168 14.2461 226.413 14.6417C226.658 15.0373 226.993 15.3693 227.391 15.6109C230.393 17.6022 237.333 16.9384 239.494 16.2746C241.363 15.664 242.629 14.4758 242.881 13.1085C242.959 12.6067 242.897 12.093 242.702 11.6243C242.506 11.1556 242.185 10.7503 241.774 10.4534C241.758 10.4385 241.745 10.4205 241.737 10.4006C241.728 10.3806 241.723 10.3591 241.723 10.3373C241.723 10.3155 241.728 10.294 241.737 10.274C241.745 10.254 241.758 10.236 241.774 10.2211C241.805 10.1907 241.846 10.1737 241.89 10.1737C241.933 10.1737 241.975 10.1907 242.006 10.2211C242.468 10.5592 242.828 11.0194 243.045 11.5504C243.261 12.0814 243.326 12.6622 243.232 13.228C242.96 14.7214 241.615 15.9959 239.626 16.6463C237.708 17.1307 235.732 17.3495 233.754 17.2968V17.2968Z" fill="#263238"/>
<path d="M212.325 23.1047C211.708 23.9718 211.454 25.046 211.616 26.0983C211.835 27.4922 213.187 27.5851 214.168 26.6957C215.149 25.8063 216.004 24.2 215.281 23.045C215.121 22.7955 214.899 22.5913 214.638 22.4519C214.376 22.3125 214.083 22.2424 213.787 22.2484C213.49 22.2544 213.2 22.3362 212.945 22.4861C212.689 22.636 212.476 22.849 212.325 23.1047Z" fill="#7F3E3B"/>
<path d="M212.703 75.6482C212.703 75.6482 215.924 113.808 219.271 135.314C221.969 152.685 224.103 193.287 224.103 193.287H231.673C231.673 193.287 234.363 153.899 232.998 136.721C229.532 93.2446 237.267 89.7001 229.306 75.6549L212.703 75.6482Z" fill="#C8A5EE"/>
<path opacity="0.4" d="M222.234 90.0718C219.234 93.2247 216.813 96.8828 215.083 100.878C215.964 109.454 217.011 118.972 218.125 127.309C222.694 115.463 224.11 102.631 222.234 90.0718V90.0718Z" fill="black"/>
<path d="M207.407 75.4093C207.407 75.4093 200.415 117.087 199.314 135.871C202.058 153.242 213.286 189.961 213.286 189.961L220.173 187.459C220.173 187.459 216.362 147.421 212.219 136.462C221.545 105.02 228.398 97.0678 226.403 75.6482C221.624 75.6482 207.407 75.4093 207.407 75.4093Z" fill="#C8A5EE"/>
<path d="M212.365 191.793L221.671 189.264L221.141 185.547L211.179 188.249L212.365 191.793Z" fill="#263238"/>
<path d="M223.063 193.44H232.706L233.21 190.054L223.01 189.709L223.063 193.44Z" fill="#263238"/>
<path d="M229.638 74.3207L230.652 76.3452C230.731 76.5045 230.546 76.6638 230.287 76.6638H206.638C206.44 76.6638 206.267 76.5642 206.254 76.4314L206.048 74.4402C206.048 74.3008 206.214 74.1813 206.433 74.1813H229.267C229.335 74.1719 229.405 74.1797 229.47 74.2041C229.535 74.2284 229.592 74.2685 229.638 74.3207V74.3207Z" fill="#C8A5EE"/>
<path opacity="0.5" d="M229.638 74.3207L230.652 76.3452C230.731 76.5045 230.546 76.6638 230.287 76.6638H206.638C206.44 76.6638 206.267 76.5642 206.254 76.4314L206.048 74.4402C206.048 74.3008 206.214 74.1813 206.433 74.1813H229.267C229.335 74.1719 229.405 74.1797 229.47 74.2041C229.535 74.2284 229.592 74.2685 229.638 74.3207V74.3207Z" fill="black"/>
<path d="M226.569 76.8695H227.179C227.305 76.8695 227.397 76.8031 227.391 76.7301L227.099 74.0751C227.099 73.9954 226.986 73.9357 226.867 73.9357H226.251C226.131 73.9357 226.039 73.9954 226.045 74.0751L226.33 76.7301C226.344 76.8164 226.45 76.8695 226.569 76.8695Z" fill="#C8A5EE"/>
<path d="M218.363 57.5408C218.29 57.5396 218.219 57.5152 218.161 57.4711C218.103 57.4269 218.06 57.3653 218.039 57.2952C215.878 49.2902 211.411 42.6924 209.243 41.6967C209.075 41.5932 208.872 41.5598 208.68 41.6038C208.64 41.6249 208.596 41.6376 208.551 41.6411C208.506 41.6446 208.46 41.6388 208.417 41.624C208.375 41.6093 208.335 41.586 208.302 41.5554C208.269 41.5249 208.242 41.4878 208.223 41.4465C208.205 41.4052 208.195 41.3606 208.194 41.3152C208.193 41.2699 208.202 41.225 208.219 41.1831C208.236 41.1413 208.262 41.1034 208.295 41.0719C208.327 41.0404 208.366 41.0158 208.408 40.9998C208.589 40.9332 208.783 40.907 208.975 40.923C209.167 40.9391 209.354 40.997 209.522 41.0927C211.815 42.1813 216.348 48.6862 218.615 56.8704C220.239 56.8704 222.744 56.6513 223.354 56.5982C224.11 55.6955 229.664 48.7393 227.59 41.1259C227.578 41.0841 227.574 41.0402 227.579 40.997C227.585 40.9538 227.598 40.9121 227.62 40.8743C227.642 40.8366 227.671 40.8035 227.705 40.7772C227.74 40.7509 227.779 40.7318 227.822 40.721C227.906 40.6986 227.996 40.7105 228.071 40.754C228.147 40.7974 228.203 40.8691 228.226 40.9533C230.539 49.4229 223.832 57.0629 223.759 57.1359C223.733 57.1681 223.701 57.1947 223.664 57.2141C223.628 57.2335 223.588 57.2453 223.546 57.2487C223.513 57.2487 220.206 57.5408 218.363 57.5408Z" fill="#C8A5EE"/>
<path d="M229.346 62.2269C225.734 55.4499 224.256 54.972 223.613 52.7948C224.1 51.5774 224.795 50.4543 225.668 49.476C225.23 49.3499 224.289 49.1641 223.679 49.0512C223.745 48.7525 223.818 48.4605 223.885 48.1751C223.221 48.1007 222.55 48.1321 221.896 48.268V47.6042C221.054 47.4208 220.19 47.3649 219.331 47.4383C219.406 47.7525 219.479 48.0711 219.55 48.3941C218.887 48.5202 217.88 48.726 217.396 48.8654C218.336 49.9318 219.027 51.1949 219.417 52.5625C217.469 55.9145 209.899 77.4603 222.214 79.113C234.529 80.7658 232.952 69.0106 229.346 62.2269Z" fill="#C8A5EE"/>
<path opacity="0.4" d="M229.346 62.2269C225.734 55.4499 224.256 54.972 223.613 52.7948C224.1 51.5774 224.795 50.4543 225.668 49.476C225.23 49.3499 224.289 49.1641 223.679 49.0512C223.745 48.7525 223.818 48.4605 223.885 48.1751C223.221 48.1007 222.55 48.1321 221.896 48.268V47.6042C221.054 47.4208 220.19 47.3649 219.331 47.4383C219.406 47.7525 219.479 48.0711 219.55 48.3941C218.887 48.5202 217.88 48.726 217.396 48.8654C218.336 49.9318 219.027 51.1949 219.417 52.5625C217.469 55.9145 209.899 77.4603 222.214 79.113C234.529 80.7658 232.952 69.0106 229.346 62.2269Z" fill="white"/>
<path d="M218.914 51.9187C218.837 52.2605 218.803 52.6106 218.814 52.9608C218.814 53.2064 219.477 53.3723 220.213 53.4454C220.948 53.5184 224.037 53.6378 223.938 53.2927C223.838 52.9475 224.09 52.4763 224.103 52.1842C224.117 51.8921 222.877 51.8789 221.836 51.9187C220.796 51.9585 219.119 51.547 218.914 51.9187Z" fill="#C8A5EE"/>
<path d="M211.749 76.8695H212.358C212.478 76.8695 212.57 76.8031 212.564 76.7301L212.279 74.0751C212.279 73.9954 212.166 73.9357 212.04 73.9357H211.45C211.331 73.9357 211.238 73.9954 211.245 74.0751L211.53 76.7301C211.517 76.8164 211.623 76.8695 211.749 76.8695Z" fill="#C8A5EE"/>
</g>
<defs>
<clipPath id="clip0_410_1056">
<rect width="360" height="214" fill="white"/>
</clipPath>
</defs>
</svg>
