<svg width="26" height="30" viewBox="0 0 26 30" fill="none" xmlns="http://www.w3.org/2000/svg">
<g clip-path="url(#clip0_241_1234)">
<path d="M20.4286 7.5C20.4286 11.6426 17.1031 15 12.9478 15C8.89688 15 5.5192 11.6426 5.5192 7.5C5.5192 3.35801 8.89688 0 12.9478 0C17.1031 0 20.4286 3.35801 20.4286 7.5ZM16.6621 21.2109C15.1125 21.627 13.8763 23.0977 13.8763 24.8438V26.25C13.8763 26.4961 14.0272 26.7363 14.2013 26.9121L15.1299 27.8496C15.4897 28.2188 16.0817 28.2188 16.4415 27.8496C16.8071 27.4863 16.8071 26.8887 16.4415 26.5254L15.7335 25.8633V24.8438C15.7335 23.8066 16.6156 22.9688 17.5906 22.9688C18.6701 22.9688 19.5 23.8066 19.5 24.8438V25.8633L18.8442 26.5254C18.4786 26.8887 18.4786 27.4863 18.8442 27.8496C19.204 28.2188 19.796 28.2188 20.1558 27.8496L21.0844 26.9121C21.2585 26.7363 21.3571 26.4961 21.3571 26.25V24.8438C21.3571 23.0977 20.1732 21.627 18.5714 21.2109V18.0938C22.8371 19.1426 26 22.9746 26 27.6562V28.125C26 29.1621 25.1701 30 24.1429 30H1.85714C0.831652 30 0 29.1621 0 28.125V27.6562C0 23.0273 3.16469 19.1426 7.42857 18.0938V21.6973C6.08795 22.1016 5.10714 23.3555 5.10714 24.8438C5.10714 26.6543 6.56384 28.125 8.35714 28.125C10.1504 28.125 11.6071 26.6543 11.6071 24.8438C11.6071 23.3555 10.6263 22.1016 9.28571 21.6973V17.8242C9.44241 17.8184 9.5933 17.8125 9.75 17.8125H16.25C16.4067 17.8125 16.5576 17.8184 16.7143 17.8242L16.6621 21.2109ZM9.69777 24.8438C9.69777 25.623 9.12902 26.25 8.30491 26.25C7.58527 26.25 6.91205 25.623 6.91205 24.8438C6.91205 24.0645 7.58527 23.4375 8.30491 23.4375C9.12902 23.4375 9.69777 24.0645 9.69777 24.8438Z" fill="#F0F1F9"/>
</g>
<defs>
<clipPath id="clip0_241_1234">
<rect width="26" height="30" fill="white"/>
</clipPath>
</defs>
</svg>
