<svg width="24" height="24" viewBox="0 0 24 24" fill="none" xmlns="http://www.w3.org/2000/svg">
<path d="M12 2.3999V7.7999C12 8.27729 12.1897 8.73513 12.5273 9.0727C12.8648 9.41026 13.3227 9.5999 13.8 9.5999H19.2V19.7999C19.2 20.2773 19.0104 20.7351 18.6728 21.0727C18.3353 21.4103 17.8774 21.5999 17.4 21.5999H6.60005C6.12266 21.5999 5.66482 21.4103 5.32726 21.0727C4.98969 20.7351 4.80005 20.2773 4.80005 19.7999V4.1999C4.80005 3.72251 4.98969 3.26468 5.32726 2.92711C5.66482 2.58954 6.12266 2.3999 6.60005 2.3999H12ZM13.2 2.6999V7.7999C13.2 7.95903 13.2633 8.11164 13.3758 8.22417C13.4883 8.33669 13.6409 8.3999 13.8 8.3999H18.9L13.2 2.6999Z" fill="#F8F8F8"/>
</svg>
