<svg width="24" height="24" viewBox="0 0 24 24" fill="none" xmlns="http://www.w3.org/2000/svg">
<path d="M17.4142 2.83569L16.335 3.91494L16.6162 4.19619L14.9055 5.90694L15.96 6.98544L17.6722 5.24994L18.75 6.32844L17.0152 8.03844L18.0937 9.09369L19.8045 7.38294L20.0857 7.66419L21.165 6.58494L17.4142 2.83569ZM13.2892 5.46069L12.21 6.53994L12.7027 7.03194L5.24999 14.5079L4.99199 14.7652L5.03924 15.1177L5.29649 17.5079L5.32049 17.7652L5.39024 17.8124L2.95349 20.2499H5.08649L6.61049 18.7267L8.88299 18.9607L9.23549 19.0079L9.49274 18.7499L16.9695 11.2964L17.4615 11.7892L18.54 10.7107L13.2892 5.46069ZM13.7812 8.10969L15.891 10.2187L8.69549 17.4374L6.91424 17.2267L6.77324 17.0857L6.56249 15.3044L13.7812 8.10969Z" fill="#F0F1F9"/>
</svg>
