<svg width="24" height="24" viewBox="0 0 24 24" fill="none" xmlns="http://www.w3.org/2000/svg">
<g clip-path="url(#clip0_241_941)">
<path d="M12.75 3.43032C13.9859 2.19443 15.6621 1.50012 17.4099 1.50012C19.1577 1.50012 20.8339 2.19443 22.0698 3.43032C23.3057 4.6662 24 6.34242 24 8.09022C24 9.83802 23.3057 11.5142 22.0698 12.7501L12.75 22.0699C12.1381 22.6819 11.4116 23.1673 10.612 23.4985C9.81247 23.8297 8.95552 24.0001 8.0901 24.0001C6.34229 24.0001 4.66608 23.3058 3.43019 22.0699C2.19431 20.834 1.5 19.1578 1.5 17.41C1.5 15.6622 2.19431 13.986 3.43019 12.7501L12.75 3.43032ZM16.7453 15.4124L20.7368 11.4209C21.6133 10.5369 22.1039 9.34183 22.1014 8.09703C22.0988 6.85224 21.6033 5.65914 20.7232 4.77881C19.8431 3.89848 18.6502 3.40261 17.4054 3.39971C16.1606 3.39681 14.9653 3.88711 14.0811 4.76333L10.0877 8.75484L16.7453 15.4124ZM12.4751 18.1236C12.5625 18.0361 12.6318 17.9322 12.6791 17.8179C12.7263 17.7036 12.7506 17.5811 12.7505 17.4574C12.7504 17.3337 12.726 17.2112 12.6786 17.097C12.6312 16.9827 12.5617 16.8789 12.4742 16.7915C12.3866 16.7041 12.2828 16.6348 12.1684 16.5876C12.0541 16.5403 11.9316 16.516 11.8079 16.5161C11.6842 16.5162 11.5618 16.5407 11.4475 16.5881C11.3333 16.6355 11.2295 16.7049 11.1421 16.7925L8.31791 19.6167C8.23051 19.7042 8.1612 19.8081 8.11395 19.9224C8.06669 20.0367 8.04242 20.1592 8.0425 20.2829C8.04268 20.5327 8.14209 20.7722 8.31886 20.9487C8.49562 21.1252 8.73528 21.2243 8.98509 21.2241C9.2349 21.224 9.47441 21.1246 9.65093 20.9478L12.4751 18.1236Z" fill="#F0F1F9"/>
</g>
<defs>
<clipPath id="clip0_241_941">
<rect width="24" height="24" fill="white"/>
</clipPath>
</defs>
</svg>
