<svg width="43" height="43" viewBox="0 0 43 43" fill="none" xmlns="http://www.w3.org/2000/svg">
<path d="M21.5 39.4167C23.4709 39.4167 25.0834 37.8042 25.0834 35.8334H17.9167C17.9167 36.7837 18.2942 37.6951 18.9662 38.3672C19.6382 39.0392 20.5497 39.4167 21.5 39.4167ZM32.25 28.6667V19.7084C32.25 14.2079 29.3117 9.60335 24.1875 8.38502V7.16669C24.1875 5.6796 22.9871 4.47919 21.5 4.47919C20.0129 4.47919 18.8125 5.6796 18.8125 7.16669V8.38502C13.6704 9.60335 10.75 14.19 10.75 19.7084V28.6667L7.16669 32.25V34.0417H35.8334V32.25L32.25 28.6667Z" fill="#F8F8F8"/>
</svg>
