<svg width="360" height="314" viewBox="0 0 360 314" fill="none" xmlns="http://www.w3.org/2000/svg">
<path d="M8.40182 159.465C-12.1538 231.088 120.945 264.883 192.07 254.445C282.051 241.289 332.769 192.172 331.393 116.522C330.034 41.5655 245.612 -1.37704 182.007 30.2247C150.661 45.8019 127.704 74.0794 96.4362 90.2531C59.322 109.505 21.2436 114.706 8.40182 159.465Z" fill="#C8A5EE"/>
<path opacity="0.9" d="M8.40182 159.465C-12.1538 231.088 120.945 264.883 192.07 254.445C282.051 241.289 332.769 192.172 331.393 116.522C330.034 41.5655 245.612 -1.37704 182.007 30.2247C150.661 45.8019 127.704 74.0794 96.4362 90.2531C59.322 109.505 21.2436 114.706 8.40182 159.465Z" fill="white"/>
<path d="M183.945 313.614C277.81 313.614 353.904 309.169 353.904 303.685C353.904 298.202 277.81 293.757 183.945 293.757C90.0788 293.757 13.9856 298.202 13.9856 303.685C13.9856 309.169 90.0788 313.614 183.945 313.614Z" fill="#F5F5F5"/>
<path d="M108.559 27.5232C101.941 21.3046 91.0278 20.1118 86.9429 26.5847C82.8581 33.0577 85.1898 39.899 76.8097 47.0737C71.112 51.9766 75.3371 67.0013 107.84 65.6242C123.224 64.9752 118.018 48.9594 117.606 41.3901C117.194 33.8208 117.167 24.5587 108.559 27.5232Z" fill="#263238"/>
<path d="M95.7525 291.564L87.8808 291.871L87.7318 283.346L95.6034 283.039L95.7525 291.564Z" fill="#B55B52"/>
<path d="M87.39 290.239H96.2872C96.444 290.238 96.5966 290.29 96.7194 290.387C96.8423 290.485 96.928 290.621 96.9622 290.775L98.5049 297.835C98.5403 298.007 98.5367 298.185 98.4943 298.356C98.4519 298.526 98.3719 298.685 98.26 298.821C98.1482 298.956 98.0074 299.065 97.848 299.139C97.6886 299.212 97.5147 299.25 97.3391 299.247C94.2273 299.195 92.7196 299.01 88.8013 299.01C86.3907 299.01 80.1407 299.265 76.8097 299.265C73.4787 299.265 73.058 295.967 74.4167 295.669C80.5527 294.327 84.1204 292.485 86.0839 290.722C86.444 290.404 86.9098 290.232 87.39 290.239Z" fill="#263238"/>
<path opacity="0.2" d="M87.7318 283.354L87.8019 287.319L95.6736 286.977L95.6034 283.047L87.7318 283.354Z" fill="black"/>
<path d="M76.126 119.855C74.3729 129.31 76.389 175.524 79.0625 195.934C82.6214 223.036 86.303 285.968 86.303 285.968L96.8219 285.337C96.8219 285.337 99.4517 219.063 97.304 197.303C98.5225 169.297 101.538 120.381 101.538 120.381L76.126 119.855Z" fill="#C8A5EE"/>
<path opacity="0.2" d="M99.7935 150.86C100.162 143.765 95.1389 137.458 93.114 150.86C91.8342 159.377 94.4814 174.305 97.9527 184.848C98.4874 173.875 99.1711 161.657 99.7935 150.86Z" fill="black"/>
<path d="M153.589 265.049L148.47 269.944L141.536 262.506L146.646 257.62L153.589 265.049Z" fill="#B55B52"/>
<path d="M147.129 270.075L152.388 262.865C152.474 262.74 152.604 262.652 152.752 262.619C152.9 262.587 153.055 262.612 153.186 262.69L159.322 266.304C159.473 266.404 159.602 266.534 159.702 266.685C159.802 266.837 159.87 267.007 159.903 267.185C159.936 267.364 159.932 267.547 159.892 267.724C159.853 267.901 159.778 268.068 159.672 268.216C157.805 270.698 156.78 271.794 154.474 274.969C153.054 276.916 151.415 279.6 149.46 282.302C147.505 285.003 144.832 283.065 145.41 281.758C148.04 275.89 146.927 274.259 146.787 271.461C146.742 270.974 146.862 270.485 147.129 270.075Z" fill="#263238"/>
<path opacity="0.2" d="M141.536 262.515L145.112 266.339L150.188 261.409L146.655 257.62L141.536 262.515Z" fill="black"/>
<path d="M88.3279 120.109C88.3279 120.109 99.6532 179.752 102.599 202.907C104.352 216.739 143.009 266.505 143.009 266.505L149.609 259.55C149.609 259.55 135.461 223.115 118.421 201.504C117.746 176.173 120.621 134.476 110.838 120.574L88.3279 120.109Z" fill="#C8A5EE"/>
<path d="M78.3875 74.3777C78.3875 79.4999 78.1509 84.5256 77.7739 89.604C77.397 94.6824 76.8974 99.7345 76.0822 104.822L75.9331 105.778L75.7315 106.856C75.5796 107.564 75.413 108.257 75.2319 108.935C74.8462 110.277 74.3553 111.566 73.917 112.812C72.958 115.254 71.8695 117.643 70.6562 119.969C68.267 124.517 65.5452 128.882 62.5128 133.029C62.1927 133.459 61.7252 133.755 61.2001 133.861C60.6749 133.968 60.1291 133.876 59.6673 133.604C59.2056 133.332 58.8603 132.9 58.6979 132.389C58.5355 131.878 58.5674 131.325 58.7873 130.836V130.784C60.8473 126.328 62.8459 121.758 64.5903 117.233C65.4668 114.97 66.247 112.68 66.9132 110.435C67.2288 109.312 67.5093 108.198 67.7284 107.111C67.8424 106.567 67.9213 106.032 68.0001 105.506L68.0878 104.725L68.1755 103.848C68.6225 98.9889 68.8855 94.0597 69.1309 89.1216C69.3764 84.1836 69.4903 79.2017 69.6306 74.3075V74.2636C69.6492 73.1005 70.1288 71.9925 70.9639 71.1832C71.799 70.3739 72.9212 69.9297 74.0836 69.9483C75.246 69.9669 76.3534 70.4468 77.1622 71.2824C77.971 72.118 78.4149 73.2409 78.3963 74.404L78.3875 74.3777Z" fill="#B55B52"/>
<path d="M75.5299 67.9661C64.7656 71.1149 66.1505 90.7092 66.1505 90.7092L81.4555 94.8315C81.4555 94.8315 83.9976 80.4822 83.7697 75.3337C83.5418 69.9834 81.4643 66.2382 75.5299 67.9661Z" fill="#C8A5EE"/>
<path d="M59.9269 129.705L54.5359 134.292L62.092 137.379C62.092 137.379 64.4325 133.81 63.3455 130.424L59.9269 129.705Z" fill="#B55B52"/>
<path d="M55.4914 141.291L58.9364 141.721C59.3191 141.769 59.7068 141.689 60.0396 141.494C60.3724 141.299 60.6317 141 60.7772 140.642L62.092 137.379L54.536 134.292L53.9662 139.353C53.9142 139.812 54.0452 140.273 54.3307 140.636C54.6163 140.999 55.0334 141.234 55.4914 141.291Z" fill="#B55B52"/>
<path d="M72.0499 73.062C71.5678 92.7089 76.0821 107.049 76.1347 119.855L110.838 120.574C110.584 107.751 110.689 99.3836 116.203 76.4037C116.443 75.4028 116.471 74.3629 116.287 73.3504C116.102 72.3379 115.708 71.375 115.131 70.5232C114.554 69.6714 113.805 68.9495 112.933 68.4035C112.061 67.8575 111.085 67.4994 110.067 67.3521C107.989 67.0451 105.684 66.7557 103.344 66.5978C98.0988 66.1116 92.8259 66.0002 87.5653 66.2645C83.8661 66.5277 79.8865 67.0715 77.0464 67.5012C75.6972 67.702 74.4601 68.3671 73.5482 69.3821C72.6362 70.3971 72.1064 71.6984 72.0499 73.062Z" fill="#C8A5EE"/>
<path d="M104.395 91.2179L94.1045 91.1477C94.002 91.1522 93.8998 91.1343 93.8049 91.0955C93.71 91.0567 93.6246 90.9977 93.5547 90.9227C93.4847 90.8477 93.4318 90.7584 93.3996 90.661C93.3674 90.5635 93.3567 90.4603 93.3682 90.3583L93.938 85.4817C93.9751 85.264 94.0877 85.0664 94.2561 84.9236C94.4244 84.7809 94.6377 84.702 94.8584 84.7011L105.141 84.7712C105.243 84.7654 105.345 84.7821 105.44 84.8199C105.535 84.8577 105.62 84.9158 105.69 84.9902C105.76 85.0645 105.813 85.1533 105.846 85.2503C105.878 85.3474 105.889 85.4503 105.877 85.5518L105.307 90.4373C105.272 90.6542 105.161 90.8516 104.994 90.9945C104.827 91.1375 104.615 91.2166 104.395 91.2179Z" fill="white"/>
<path opacity="0.4" d="M87.6178 66.2733C87.6178 66.2733 81.9552 70.2378 87.9422 80.184C92.8575 75.4 98.0095 70.8656 103.379 66.5978L87.6178 66.2733Z" fill="white"/>
<path d="M102.187 48.8103C101.091 53.8624 99.8986 63.1421 103.379 66.5978C97.9066 68.7546 92.8609 71.867 88.4769 75.7898C84.6287 68.7204 87.6003 66.2645 87.6003 66.2645C93.2805 65.0366 93.2279 60.8353 92.325 56.8708L102.187 48.8103Z" fill="#B55B52"/>
<path opacity="0.2" d="M101.117 49.6874C100.98 52.7061 100.2 55.6607 98.8292 58.3531C97.8738 60.2038 95.3229 60.9844 92.7546 61.1335C92.8394 59.6998 92.7004 58.2617 92.3426 56.8708L101.117 49.6874Z" fill="black"/>
<path d="M110.4 42.6268C107.77 50.7136 106.894 54.1869 101.634 57.3445C93.789 62.0896 84.4359 57.134 84.5586 48.442C84.6813 40.6183 88.9415 28.7161 97.7686 27.4969C99.7233 27.2138 101.718 27.436 103.563 28.1424C105.407 28.8488 107.04 30.016 108.307 31.5327C109.573 33.0494 110.43 34.8651 110.796 36.8071C111.163 38.7491 111.026 40.7526 110.4 42.6268Z" fill="#B55B52"/>
<path d="M88.9678 32.0052C93.3506 33.2419 104.027 34.1628 106.166 32.8823C104.159 35.9697 106.07 44.4073 109.173 46.4509C113.354 43.0917 114.283 34.9698 110.418 30.9439C106.552 26.918 94.3324 22.1028 88.9678 32.0052Z" fill="#263238"/>
<path d="M111.627 47.5736C111.35 48.3441 110.923 49.0514 110.369 49.6539C109.815 50.2564 109.146 50.742 108.401 51.082C106.42 51.9591 105.106 50.2751 105.386 48.2315C105.64 46.3983 106.981 43.7232 109.103 43.6881C109.56 43.6944 110.01 43.8135 110.411 44.0347C110.811 44.256 111.152 44.5727 111.401 44.9568C111.651 45.3408 111.802 45.7805 111.841 46.2369C111.881 46.6933 111.807 47.1524 111.627 47.5736Z" fill="#B55B52"/>
<path d="M111.399 118.548L112.907 121.697C113.021 121.934 112.732 122.179 112.328 122.171L75.9244 121.407C75.6176 121.407 75.3634 121.241 75.3458 121.039L75.0916 117.925C75.0916 117.715 75.3546 117.539 75.6965 117.539L110.847 118.276C110.955 118.27 111.062 118.291 111.159 118.339C111.256 118.387 111.339 118.459 111.399 118.548Z" fill="#263238"/>
<path d="M106.605 122.381H107.542C107.727 122.381 107.876 122.285 107.867 122.171L107.507 118.118C107.507 118.004 107.332 117.899 107.148 117.899H106.201C106.017 117.899 105.877 117.987 105.886 118.11L106.236 122.153C106.254 122.285 106.412 122.381 106.605 122.381Z" fill="#C8A5EE"/>
<path d="M78.5629 121.802H79.5096C79.6936 121.802 79.8427 121.714 79.8339 121.592L79.4745 117.539C79.4745 117.425 79.2992 117.329 79.1151 117.32H78.1684C77.9843 117.32 77.8353 117.408 77.8528 117.531L78.2035 121.574C78.221 121.697 78.3788 121.793 78.5629 121.802Z" fill="#C8A5EE"/>
<path d="M92.5793 122.092H93.526C93.7101 122.092 93.8591 122.004 93.8503 121.881L93.4909 117.838C93.4909 117.715 93.3156 117.618 93.1315 117.618H92.1849C92.0008 117.618 91.8605 117.715 91.8693 117.829L92.2199 121.881C92.2374 121.986 92.3952 122.092 92.5793 122.092Z" fill="#C8A5EE"/>
<path d="M97.7862 41.9515C97.6109 42.618 97.12 43.0741 96.6817 42.9601C96.2434 42.8461 96.033 42.2146 96.1996 41.548C96.3661 40.8814 96.8658 40.4253 97.304 40.5393C97.7423 40.6534 97.9527 41.2849 97.7862 41.9515Z" fill="#263238"/>
<path d="M90.23 40.0218C90.0635 40.6972 89.5726 41.1445 89.1343 41.0305C88.696 40.9165 88.4769 40.2937 88.6522 39.6184C88.8275 38.943 89.3096 38.5045 89.7479 38.6097C90.1862 38.715 90.4053 39.3552 90.23 40.0218Z" fill="#263238"/>
<path d="M89.932 38.6974L88.4418 37.8203C88.4418 37.8203 88.9502 39.2939 89.932 38.6974Z" fill="#263238"/>
<path d="M91.9043 41.6796C90.923 43.0542 89.758 44.2877 88.4418 45.3458C88.7197 45.6752 89.0659 45.94 89.4565 46.1218C89.8471 46.3036 90.2726 46.3979 90.7034 46.3983L91.9043 41.6796Z" fill="#A02724"/>
<path d="M92.3251 49.0208C92.2942 48.9944 92.2714 48.9599 92.259 48.9212C92.2466 48.8824 92.2452 48.841 92.255 48.8016C92.2629 48.7762 92.2759 48.7526 92.293 48.7322C92.3101 48.7118 92.3311 48.6951 92.3547 48.6828C92.3783 48.6706 92.4041 48.6632 92.4307 48.661C92.4572 48.6588 92.4839 48.6618 92.5092 48.67C93.328 48.9268 94.1956 48.9875 95.0421 48.8474C95.8887 48.7072 96.6905 48.3701 97.3829 47.8631C97.4236 47.8282 97.4765 47.8109 97.5299 47.815C97.5833 47.8191 97.6329 47.8443 97.6678 47.885C97.7027 47.9257 97.72 47.9786 97.7159 48.0321C97.7118 48.0855 97.6866 48.1352 97.6459 48.1701C96.9048 48.7296 96.0395 49.1016 95.1237 49.2543C94.208 49.407 93.2689 49.336 92.3865 49.0472L92.3251 49.0208Z" fill="#263238"/>
<path d="M101.906 38.8729C101.853 38.8254 101.808 38.769 101.775 38.7062C101.594 38.2308 101.302 37.8054 100.924 37.4653C100.546 37.1251 100.092 36.88 99.6006 36.7503C99.4949 36.7317 99.4008 36.6718 99.3392 36.5838C99.2775 36.4958 99.2533 36.3869 99.2719 36.281C99.2905 36.1752 99.3504 36.0811 99.4383 36.0194C99.5263 35.9577 99.6351 35.9335 99.7409 35.9521C100.366 36.1069 100.945 36.4089 101.43 36.8331C101.915 37.2572 102.292 37.7912 102.528 38.3904C102.559 38.4729 102.563 38.5631 102.539 38.6478C102.515 38.7326 102.465 38.8074 102.395 38.8613C102.325 38.9153 102.24 38.9455 102.152 38.9476C102.064 38.9496 101.978 38.9235 101.906 38.8729Z" fill="#263238"/>
<path d="M88.7399 35.7592L88.6873 35.7065C88.6118 35.6309 88.5695 35.5284 88.5695 35.4215C88.5695 35.3146 88.6118 35.2121 88.6873 35.1364C89.1502 34.7019 89.7088 34.3825 90.318 34.2042C90.9271 34.0259 91.5697 33.9937 92.1936 34.1102C92.2458 34.1234 92.2948 34.147 92.3377 34.1794C92.3806 34.2119 92.4166 34.2526 92.4436 34.2992C92.4705 34.3458 92.4879 34.3973 92.4946 34.4507C92.5014 34.5041 92.4974 34.5583 92.4829 34.6102C92.4561 34.7136 92.3893 34.8022 92.2973 34.8565C92.2053 34.9108 92.0955 34.9263 91.992 34.8996C91.4919 34.8053 90.9766 34.8317 90.4887 34.9766C90.0009 35.1215 89.5546 35.3808 89.187 35.7328C89.1234 35.781 89.047 35.8091 88.9674 35.8138C88.8879 35.8185 88.8087 35.7995 88.7399 35.7592Z" fill="#263238"/>
<path d="M116.194 73.5532C118.745 76.93 121.129 80.3331 123.443 83.8678C124.592 85.622 125.731 87.3762 126.81 89.2707C127.971 91.1869 129.013 93.1729 129.93 95.2174C130.208 95.8548 130.448 96.5079 130.649 97.1733C130.795 97.6867 130.895 98.2122 130.947 98.7434C130.961 98.9565 130.961 99.1705 130.947 99.3836V99.7783C130.931 99.9522 130.905 100.125 130.868 100.296L130.807 100.568V100.691V100.787L130.737 100.98C130.325 102.032 130 103.094 129.509 104.111C128.62 106.196 127.553 108.201 126.319 110.102C125.048 112.021 123.559 113.787 121.883 115.364C121.029 116.166 120.112 116.896 119.139 117.548C118.64 117.873 118.131 118.189 117.605 118.478L116.773 118.881C116.457 119.022 116.229 119.118 115.773 119.285L114.108 115.285C114.227 115.169 114.352 115.061 114.485 114.961L114.967 114.54C115.291 114.25 115.607 113.935 115.914 113.61C116.538 112.94 117.124 112.234 117.667 111.496C118.737 109.99 119.67 108.39 120.454 106.716C120.823 105.839 121.226 105.015 121.533 104.085C121.839 103.155 122.181 102.331 122.462 101.454C122.742 100.576 122.961 99.6117 123.233 98.6995V98.5329V98.4451V98.5241V98.6995C123.233 98.8048 123.189 98.9626 123.18 99.024C123.176 99.0912 123.176 99.1586 123.18 99.2258V99.4801C123.18 99.6818 123.18 99.6204 123.18 99.5327C123.18 99.445 122.935 98.9714 122.751 98.603C121.953 97.1032 120.884 95.3753 119.788 93.7264C118.692 92.0774 117.553 90.3846 116.387 88.7269C114.064 85.4027 111.671 82.0435 109.322 78.7456L116.194 73.5532Z" fill="#B55B52"/>
<path d="M118.096 118.25L111.338 123.03L108.305 116.119C108.305 116.119 112.407 113.917 115.642 115.391L118.096 118.25Z" fill="#B55B52"/>
<path d="M106.631 123.6L104.939 121.241C104.618 120.786 104.487 120.223 104.573 119.673C104.66 119.123 104.958 118.628 105.404 118.294L108.305 116.119L111.338 123.03L109.48 124.179C109.02 124.462 108.47 124.559 107.941 124.452C107.412 124.344 106.944 124.04 106.631 123.6Z" fill="#B55B52"/>
<path d="M102.669 71.4657C100.372 80.5963 114.537 96.2261 114.537 96.2261L126.45 83.8503C126.45 83.8503 121.007 72.22 113.898 68.5713C108.936 66.0277 103.685 67.4398 102.669 71.4657Z" fill="#C8A5EE"/>
<path d="M97.4881 40.627L95.9979 39.7499C95.9979 39.7499 96.4976 41.2235 97.4881 40.627Z" fill="#263238"/>
<path d="M82.262 95.8577C82.198 95.8573 82.1355 95.8379 82.0824 95.802C82.0294 95.7661 81.9882 95.7153 81.9639 95.656C81.9355 95.578 81.9388 95.492 81.9733 95.4165C82.0077 95.341 82.0705 95.2821 82.148 95.2525L83.5155 94.7263C84.7963 94.253 85.9023 93.3998 86.6855 92.2807C87.4687 91.1616 87.8919 89.83 87.8983 88.4638L87.9948 75.6407C88.0225 74.6644 87.7144 73.7083 87.1219 72.9321C86.5295 72.156 85.6886 71.607 84.74 71.3769C83.7915 71.1468 82.7927 71.2496 81.9108 71.6681C81.0289 72.0866 80.3174 72.7954 79.8952 73.676L73.9696 85.0782C73.333 86.282 73.0759 87.6505 73.2324 89.0034C73.3889 90.3563 73.9516 91.6299 74.8462 92.6563L75.8104 93.7527C75.8429 93.7828 75.8686 93.8194 75.886 93.8602C75.9034 93.9009 75.912 93.9449 75.9114 93.9892C75.9107 94.0335 75.9006 94.0771 75.882 94.1173C75.8633 94.1575 75.8364 94.1933 75.803 94.2224C75.7696 94.2515 75.7305 94.2732 75.6881 94.2862C75.6458 94.2991 75.6012 94.303 75.5572 94.2976C75.5133 94.2922 75.471 94.2776 75.433 94.2547C75.3951 94.2318 75.3624 94.2013 75.337 94.1649L74.3728 92.9721C73.3856 91.8566 72.7618 90.4664 72.5848 88.987C72.4079 87.5076 72.6861 86.0094 73.3823 84.6923L79.3079 73.2901C79.8144 72.3169 80.6335 71.5427 81.6333 71.0922C82.6331 70.6416 83.7554 70.5409 84.8194 70.8063C85.8833 71.0717 86.8271 71.6877 87.4985 72.5551C88.1699 73.4226 88.53 74.4909 88.5207 75.588L88.4243 88.4112C88.4172 89.8986 87.9593 91.3489 87.111 92.5704C86.2627 93.7919 85.064 94.7271 83.6733 95.2525L82.3058 95.77L82.262 95.8577Z" fill="#263238"/>
<path d="M88.2139 78.5C88.1324 78.4979 88.0546 78.4652 87.9961 78.4083C87.9377 78.3514 87.9027 78.2745 87.8984 78.193C87.7741 77.1795 87.3458 76.2276 86.67 75.4625C85.9941 74.6975 85.1025 74.1553 84.1126 73.9074C83.1226 73.6595 82.0809 73.7176 81.1246 74.074C80.1683 74.4304 79.3424 75.0683 78.7557 75.9038C78.7355 75.9401 78.7085 75.972 78.676 75.9978C78.6435 76.0236 78.6062 76.0428 78.5663 76.0542C78.5265 76.0656 78.4847 76.069 78.4435 76.0643C78.4023 76.0596 78.3624 76.0467 78.3262 76.0266C78.2899 76.0064 78.258 75.9793 78.2322 75.9468C78.2064 75.9143 78.1872 75.877 78.1758 75.8371C78.1645 75.7972 78.161 75.7555 78.1658 75.7142C78.1705 75.673 78.1833 75.6331 78.2034 75.5968C78.8557 74.6322 79.7884 73.8914 80.8752 73.4746C81.9621 73.0578 83.1507 72.9852 84.2802 73.2665C85.4096 73.5479 86.4255 74.1696 87.1902 75.0476C87.9549 75.9256 88.4316 77.0175 88.5558 78.1755C88.5559 78.2586 88.5242 78.3386 88.4671 78.399C88.41 78.4594 88.3319 78.4955 88.249 78.5H88.2139Z" fill="#263238"/>
<path d="M84.7953 71.492C84.7434 71.4914 84.6925 71.4783 84.6467 71.4539C84.601 71.4295 84.5617 71.3944 84.5323 71.3517C84.3721 70.996 84.2893 70.6103 84.2893 70.2202C84.2893 69.8301 84.3721 69.4445 84.5323 69.0888C84.7599 68.3814 85.1435 67.7342 85.6549 67.1952C86.1662 66.6563 86.7922 66.2392 87.4864 65.9751C87.5248 65.96 87.566 65.9531 87.6072 65.9548C87.6484 65.9565 87.6889 65.9667 87.726 65.9848C87.7631 66.003 87.796 66.0286 87.8226 66.0602C87.8493 66.0917 87.8691 66.1285 87.8808 66.1681C87.9062 66.246 87.9003 66.3308 87.8643 66.4045C87.8283 66.4781 87.7651 66.5349 87.688 66.5627C87.0935 66.8067 86.559 67.1769 86.1216 67.6479C85.6842 68.1189 85.3543 68.6794 85.1547 69.2905C85.024 69.5621 84.9481 69.8569 84.9316 70.158C84.915 70.459 84.9581 70.7604 85.0583 71.0447C85.0809 71.0798 85.0964 71.119 85.1039 71.1601C85.1113 71.2012 85.1105 71.2433 85.1015 71.2841C85.0926 71.3249 85.0756 71.3635 85.0516 71.3977C85.0276 71.4319 84.9971 71.4609 84.9618 71.4832C84.9078 71.4992 84.8507 71.5022 84.7953 71.492Z" fill="#263238"/>
<path d="M81.5432 95.3753C81.3942 95.9454 81.5432 96.4892 81.964 96.5857C82.3848 96.6822 82.7705 96.2875 82.9107 95.7086C83.051 95.1297 82.8581 94.5859 82.4812 94.4982C82.1043 94.4105 81.6835 94.7964 81.5432 95.3753Z" fill="#263238"/>
<path d="M106.42 80.2279C106.701 81.5523 107.648 82.4645 108.515 82.2803C109.383 82.0961 109.857 80.8594 109.567 79.5437C109.278 78.2281 108.34 77.2984 107.472 77.4914C106.604 77.6843 106.131 78.9386 106.42 80.2279Z" fill="#263238"/>
<path d="M109.164 79.8157C109.124 79.8168 109.084 79.81 109.046 79.7957C109.008 79.7813 108.974 79.7597 108.945 79.732C108.915 79.7043 108.892 79.6711 108.875 79.6343C108.859 79.5975 108.85 79.5578 108.849 79.5174C108.664 74.6671 106.824 68.6415 103.238 66.861C103.164 66.8233 103.108 66.7581 103.082 66.6793C103.056 66.6005 103.062 66.5145 103.098 66.44C103.116 66.4024 103.141 66.3689 103.172 66.3414C103.203 66.3139 103.239 66.2929 103.279 66.2798C103.318 66.2667 103.359 66.2617 103.401 66.2651C103.442 66.2685 103.482 66.2802 103.519 66.2996C107.358 68.2029 109.278 74.2987 109.471 79.456C109.475 79.4974 109.47 79.539 109.456 79.5783C109.443 79.6175 109.422 79.6536 109.393 79.6841C109.365 79.7147 109.331 79.739 109.293 79.7556C109.255 79.7722 109.214 79.7807 109.173 79.7806L109.164 79.8157Z" fill="#263238"/>
<path d="M105.482 80.3419C105.667 81.4734 106.482 82.2803 107.306 82.1487C108.13 82.0172 108.656 80.991 108.472 79.8507C108.287 78.7105 107.463 77.9124 106.64 78.0439C105.816 78.1755 105.298 79.2017 105.482 80.3419Z" fill="white"/>
<path d="M105.412 80.4384C105.675 81.8417 106.412 82.8767 107.052 82.7539C107.691 82.6311 107.981 81.4032 107.718 79.9998C107.455 78.5965 106.718 77.5615 106.079 77.6843C105.439 77.8071 105.141 79.035 105.412 80.4384Z" fill="#263238"/>
<path d="M74.9163 93.7176C74.7761 94.2965 74.9689 94.8403 75.3459 94.928C75.7228 95.0157 76.1435 94.6385 76.2926 94.0509C76.4416 93.4632 76.24 92.937 75.863 92.8405C75.4861 92.744 75.0654 93.1475 74.9163 93.7176Z" fill="#263238"/>
<path d="M170.936 22.2958C165.388 23.2869 164.686 22.7782 164.616 18.7874C164.546 14.7966 162.53 8.13944 165.335 6.05196C165.527 5.86927 165.764 5.74031 166.022 5.67795C166.28 5.61559 166.55 5.62202 166.805 5.69659C167.059 5.77115 167.29 5.91125 167.473 6.10289C167.657 6.29454 167.787 6.53101 167.851 6.78871C168.022 6.35095 168.355 5.99621 168.782 5.79849C169.208 5.60076 169.694 5.57531 170.139 5.72743C170.253 4.90296 170.384 2.78916 171.892 2.21905C173.399 1.64894 174.784 3.01721 174.784 3.01721C174.784 3.01721 174.67 -0.236818 176.862 0.0789358C177.516 0.183543 178.124 0.483037 178.605 0.938338C179.087 1.39364 179.42 1.98361 179.562 2.63129C179.562 2.63129 180.824 0.789389 182.533 1.51738C184.243 2.24537 183.883 4.38548 183.883 4.38548C183.883 4.38548 185.698 3.50838 187.048 4.4995C188.398 5.49061 187.416 7.07816 187.416 7.07816C187.416 7.07816 188.643 3.92061 190.983 5.66603C193.087 7.2448 191.176 9.71821 191.176 9.71821C191.176 9.71821 193.491 9.34107 194.052 10.5076C195.945 14.4808 188.731 18.9189 188.494 25.6287C177.414 29.8212 170.936 22.2958 170.936 22.2958Z" fill="#263238"/>
<path d="M130.947 128.933L127.248 128.249L122.357 132.924C122.09 133.177 121.88 133.484 121.74 133.824C121.599 134.164 121.532 134.53 121.541 134.897L121.611 138.721C121.62 139.375 121.872 140.002 122.317 140.481C122.763 140.959 123.371 141.254 124.022 141.309L125.723 141.458C126.341 141.516 126.96 141.354 127.471 140.999C127.981 140.644 128.349 140.12 128.51 139.52L129.387 136.397C129.387 136.397 134.217 130.687 130.947 128.933Z" fill="#FFB573"/>
<path d="M168.306 58.9934C165.826 65.4225 163.354 71.8779 160.97 78.3509C158.585 84.8239 156.219 91.3231 154.001 97.7172L153.606 98.9012L153.335 99.6731C153.229 99.9625 153.124 100.261 153.028 100.489C152.616 101.533 152.204 102.392 151.792 103.26C150.968 105.015 150.135 106.585 149.294 108.172C147.602 111.33 145.857 114.373 144.096 117.408C140.589 123.486 137.083 129.424 133.454 135.45L122.295 128.503C125.977 122.776 129.527 116.864 132.928 110.961C134.602 107.997 136.25 105.023 137.784 102.076C138.547 100.603 139.283 99.1293 139.932 97.6908C140.239 96.9979 140.545 96.2875 140.747 95.7086C140.817 95.542 140.843 95.4279 140.887 95.3139L141.027 94.8578L141.431 93.5773C143.543 86.8412 145.761 80.3331 147.9 73.7286L154.316 53.9852L168.306 58.9934Z" fill="#C8A5EE"/>
<path opacity="0.6" d="M168.306 58.9934C165.826 65.4225 163.354 71.8779 160.97 78.3509C158.585 84.8239 156.219 91.3231 154.001 97.7172L153.606 98.9012L153.335 99.6731C153.229 99.9625 153.124 100.261 153.028 100.489C152.616 101.533 152.204 102.392 151.792 103.26C150.968 105.015 150.135 106.585 149.294 108.172C147.602 111.33 145.857 114.373 144.096 117.408C140.589 123.486 137.083 129.424 133.454 135.45L122.295 128.503C125.977 122.776 129.527 116.864 132.928 110.961C134.602 107.997 136.25 105.023 137.784 102.076C138.547 100.603 139.283 99.1293 139.932 97.6908C140.239 96.9979 140.545 96.2875 140.747 95.7086C140.817 95.542 140.843 95.4279 140.887 95.3139L141.027 94.8578L141.431 93.5773C143.543 86.8412 145.761 80.3331 147.9 73.7286L154.316 53.9852L168.306 58.9934Z" fill="white"/>
<path d="M134.874 293.748L127.011 294.134L130.728 273.645L138.205 275.364L134.874 293.748Z" fill="#FFB573"/>
<path d="M191.282 294.046H183.419L183.445 275.829H191.299L191.282 294.046Z" fill="#FFB573"/>
<path d="M182.674 293.134H192.255C192.409 293.131 192.558 293.184 192.677 293.282C192.796 293.38 192.876 293.517 192.903 293.669L194.165 300.686C194.193 300.859 194.183 301.037 194.136 301.206C194.088 301.375 194.004 301.532 193.89 301.666C193.776 301.799 193.634 301.907 193.474 301.98C193.314 302.053 193.14 302.09 192.965 302.089C189.879 302.036 187.635 301.852 183.752 301.852C181.367 301.852 174.109 302.098 170.849 302.098C167.588 302.098 167.255 298.835 168.613 298.537C174.749 297.212 179.369 295.388 181.376 293.643C181.732 293.32 182.193 293.139 182.674 293.134Z" fill="#263238"/>
<path opacity="0.2" d="M130.728 273.654L129.01 283.126L136.487 284.845L138.205 275.373L130.728 273.654Z" fill="black"/>
<path opacity="0.2" d="M191.299 275.829H183.436V285.214H191.299V275.829Z" fill="black"/>
<path d="M197.628 58.7654C191.492 86.3851 193.122 113.645 192.465 119.548L150.503 116.776C146.12 83.4468 151.012 62.186 153.79 53.4677C154.242 52.0286 155.096 50.7492 156.252 49.7807C157.408 48.8123 158.817 48.1956 160.312 48.0034C166.552 47.3191 172.836 47.1226 179.106 47.4158C183.351 47.6699 187.564 48.3099 191.693 49.3278C193.73 49.7942 195.498 51.0497 196.611 52.8189C197.723 54.5881 198.089 56.7267 197.628 58.7654Z" fill="#C8A5EE"/>
<path d="M184.979 28.6985C183.594 33.8997 181.955 43.1092 184.593 47.7666C185.005 48.4946 184.216 49.1173 184.181 49.9593C184.085 52.538 180.596 53.3098 174.355 53.3449C168.114 53.38 165.44 50.775 167.141 48.3192C167.401 47.9448 167.798 47.6868 168.245 47.5999C174.092 46.2931 174.206 41.7059 173.408 37.3292L184.979 28.6985Z" fill="#FFB573"/>
<path opacity="0.4" d="M173.908 51.9153C175.547 54.1966 176.587 56.8538 176.932 59.6425C183.164 56.713 186.136 49.5997 186.136 49.5997L184.26 47.5912C184.26 47.5912 177.335 48.8981 173.908 51.9153Z" fill="black"/>
<path opacity="0.4" d="M173.294 51.9416C170.999 53.8106 169.063 56.0811 167.579 58.6426C163.222 55.9411 164.66 48.2402 164.66 48.2402L168.21 47.5385C168.21 47.5385 169.797 49.0033 173.294 51.9416Z" fill="black"/>
<path d="M173.575 51.7486L172.234 51.8802L169.963 53.38C169.818 54.2834 169.979 55.2093 170.419 56.0113C171.738 56.269 173.084 56.3603 174.425 56.2832C175.325 55.8483 176.042 55.1089 176.45 54.1957L174.784 52.0644L173.575 51.7486Z" fill="#263238"/>
<path d="M173.575 51.7486C175.259 53.8575 176.55 56.252 177.388 58.818C183.62 55.8885 187.249 48.8893 187.249 48.8893L184.243 46.258C184.243 46.258 177.002 48.7489 173.575 51.7486Z" fill="#C8A5EE"/>
<path d="M173.575 51.7486C171.169 53.2672 169.065 55.2179 167.369 57.5023C162.986 54.8097 164.66 47.5561 164.66 47.5561L168.21 46.8544C168.21 46.8544 170.086 48.8279 173.575 51.7486Z" fill="#C8A5EE"/>
<path opacity="0.2" d="M180.263 32.2157L173.426 37.3204C173.633 38.3755 173.747 39.4467 173.768 40.5218C176.231 40.3376 179.772 37.8905 180.202 35.3294C180.408 34.3035 180.428 33.249 180.263 32.2157Z" fill="black"/>
<path d="M186.232 20.103C185.242 27.8478 185.058 32.3823 180.868 36.1626C174.565 41.7673 165.212 37.5747 163.871 29.6897C162.661 22.594 164.485 11.1216 172.295 8.53414C174.014 7.95418 175.854 7.82384 177.638 8.15551C179.422 8.48719 181.092 9.26985 182.488 10.4291C183.885 11.5884 184.962 13.0858 185.617 14.779C186.273 16.4722 186.484 18.3049 186.232 20.103Z" fill="#FFB573"/>
<path d="M184.339 27.1022C182.586 25.4094 183.682 17.3051 184.567 14.9808C180.184 15.4018 166.019 15.3843 166.553 11.4724C167.088 7.56057 172.242 4.23637 180.666 6.98168C187.679 9.2709 189.432 12.7705 189.432 15.6298C189.537 21.5064 184.339 27.1022 184.339 27.1022Z" fill="#263238"/>
<path d="M188.95 27.1899C188.117 28.7818 186.695 29.9844 184.988 30.5404C182.752 31.2334 181.648 29.1722 182.279 26.9619C182.84 24.9797 184.69 22.2168 186.925 22.4975C189.16 22.7782 189.975 25.2165 188.95 27.1899Z" fill="#FFB573"/>
<path d="M126.45 280.723L139.45 283.591C139.45 283.591 152.09 234.026 155.842 209.801C156.99 202.434 159.655 191.917 162.083 180.857C165.142 166.911 168.99 151.825 172.146 140.011C175.477 127.565 177.949 118.618 177.949 118.618L150.503 116.803C150.503 116.803 137.732 181.629 135.154 205.495C132.463 230.299 126.45 280.723 126.45 280.723Z" fill="#263238"/>
<path opacity="0.2" d="M162.083 180.839C165.142 166.894 168.99 151.808 172.146 139.993L169.262 133.853C162.451 141.993 160.707 167.174 162.083 180.839Z" fill="black"/>
<path d="M163.582 117.645C163.582 117.645 169.262 183.892 171.471 206.828C173.925 231.948 180.508 283.407 180.508 283.407H193.71C193.71 283.407 194.306 228.606 191.957 204.346C191.623 156.649 192.456 119.557 192.456 119.557L163.582 117.645Z" fill="#263238"/>
<path d="M178.825 283.714H195.778V278.644L178.168 277.671L178.825 283.714Z" fill="#C8A5EE"/>
<path d="M124.75 280.67L140.239 284.091L141.343 279.083L125.126 274.996L124.75 280.67Z" fill="#C8A5EE"/>
<path d="M174.916 21.4888C174.916 22.1203 174.504 22.6115 174.092 22.5852C173.68 22.5589 173.373 22.0239 173.417 21.3923C173.461 20.7608 173.829 20.2697 174.241 20.296C174.653 20.3223 174.96 20.8573 174.916 21.4888Z" fill="#263238"/>
<path d="M167.763 21.0503C167.763 21.6818 167.351 22.173 166.939 22.1467C166.527 22.1203 166.22 21.5853 166.264 20.9538C166.308 20.3223 166.676 19.8311 167.088 19.8574C167.5 19.8837 167.807 20.3837 167.763 21.0503Z" fill="#263238"/>
<path d="M169.402 21.4888C168.518 23.3704 167.383 25.1231 166.027 26.6988C167.071 27.8215 169.008 27.4706 169.008 27.4706L169.402 21.4888Z" fill="#ED893E"/>
<path d="M171.567 29.3388C172.278 29.2988 172.973 29.1149 173.61 28.7983C174.247 28.4817 174.814 28.039 175.275 27.4969C175.308 27.4627 175.326 27.4171 175.326 27.3698C175.326 27.3224 175.308 27.2768 175.275 27.2426C175.24 27.2093 175.193 27.1908 175.144 27.1908C175.095 27.1908 175.048 27.2093 175.012 27.2426C174.492 27.8369 173.839 28.3005 173.107 28.596C172.374 28.8916 171.583 29.0108 170.796 28.9441C170.772 28.9417 170.747 28.9441 170.724 28.9512C170.701 28.9583 170.679 28.9699 170.66 28.9854C170.642 29.0009 170.626 29.02 170.615 29.0415C170.604 29.063 170.597 29.0866 170.594 29.1108C170.592 29.1606 170.609 29.2094 170.641 29.247C170.674 29.2846 170.72 29.308 170.77 29.3125C171.035 29.3374 171.301 29.3462 171.567 29.3388Z" fill="#263238"/>
<path d="M176.66 19.2961C176.723 19.2889 176.782 19.268 176.836 19.2347C176.919 19.1808 176.977 19.0962 176.999 18.9993C177.02 18.9025 177.002 18.8011 176.95 18.7172C176.636 18.2126 176.207 17.7901 175.698 17.485C175.189 17.1798 174.614 17.0009 174.022 16.963C173.933 16.9767 173.852 17.0218 173.793 17.0902C173.734 17.1586 173.702 17.2457 173.702 17.3358C173.702 17.4259 173.734 17.513 173.793 17.5814C173.852 17.6497 173.933 17.6949 174.022 17.7085C174.49 17.7431 174.943 17.8884 175.343 18.1324C175.744 18.3763 176.081 18.7121 176.327 19.1119C176.36 19.1707 176.408 19.2192 176.467 19.2517C176.526 19.2843 176.593 19.2997 176.66 19.2961Z" fill="#263238"/>
<path d="M164.23 18.3576C164.291 18.3533 164.35 18.3343 164.402 18.3023C164.454 18.2702 164.497 18.226 164.528 18.1734C164.752 17.7658 165.069 17.4168 165.453 17.1547C165.836 16.8925 166.277 16.7247 166.737 16.6648C166.835 16.6559 166.926 16.6102 166.991 16.5369C167.056 16.4636 167.091 16.3682 167.088 16.2701C167.081 16.1716 167.036 16.0797 166.962 16.0141C166.889 15.9485 166.792 15.9145 166.694 15.9193C166.105 15.9904 165.542 16.2021 165.053 16.5364C164.563 16.8706 164.161 17.3178 163.88 17.8401C163.832 17.9251 163.821 18.0254 163.847 18.119C163.873 18.2127 163.935 18.2922 164.02 18.3401C164.086 18.3699 164.16 18.3761 164.23 18.3576Z" fill="#263238"/>
<path d="M180.018 294.502C180.715 294.485 181.409 294.391 182.086 294.222C182.122 294.213 182.154 294.195 182.179 294.168C182.204 294.142 182.22 294.108 182.227 294.072C182.236 294.038 182.234 294.002 182.222 293.969C182.209 293.936 182.186 293.907 182.156 293.888C181.876 293.704 179.404 292.134 178.51 292.59C178.413 292.641 178.331 292.716 178.273 292.809C178.214 292.901 178.181 293.007 178.177 293.116C178.146 293.297 178.161 293.483 178.22 293.656C178.28 293.829 178.383 293.984 178.519 294.107C178.958 294.408 179.487 294.548 180.018 294.502ZM181.552 293.958C180.21 294.23 179.185 294.178 178.773 293.818C178.679 293.735 178.609 293.629 178.569 293.511C178.529 293.392 178.521 293.265 178.545 293.143C178.545 293.002 178.615 292.95 178.668 292.923C179.132 292.695 180.552 293.362 181.552 293.958Z" fill="#C8A5EE"/>
<path d="M182.042 294.23C182.073 294.242 182.108 294.242 182.139 294.23C182.169 294.214 182.194 294.19 182.211 294.161C182.228 294.131 182.236 294.098 182.235 294.064C182.235 293.967 182.139 291.695 181.254 290.95C181.147 290.856 181.021 290.786 180.885 290.746C180.749 290.705 180.605 290.694 180.465 290.713C180.324 290.713 180.188 290.761 180.078 290.849C179.968 290.936 179.891 291.059 179.86 291.196C179.658 292.073 181.157 293.827 181.955 294.239C181.984 294.245 182.015 294.242 182.042 294.23ZM180.587 291.038C180.743 291.039 180.893 291.099 181.008 291.204C181.569 291.678 181.771 293.002 181.832 293.669C181.052 293.055 180.079 291.748 180.219 291.231C180.219 291.187 180.219 291.073 180.5 291.046H180.587V291.038Z" fill="#C8A5EE"/>
<path d="M125.836 290.669L135.058 293.301C135.205 293.343 135.333 293.435 135.42 293.562C135.506 293.688 135.545 293.841 135.531 293.993L134.848 301.072C134.825 301.246 134.766 301.413 134.673 301.562C134.58 301.711 134.456 301.838 134.31 301.935C134.163 302.031 133.998 302.095 133.824 302.122C133.651 302.148 133.474 302.137 133.305 302.089C130.351 301.212 128.247 300.414 124.539 299.352C122.243 298.703 114.765 296.02 112.039 294.16C109.313 292.301 110.917 289.433 112.206 289.959C118 292.309 122.076 291.932 124.478 290.836C124.897 290.621 125.378 290.562 125.836 290.669Z" fill="#263238"/>
<path d="M122.9 291.266C123.578 291.434 124.271 291.531 124.969 291.555C125.006 291.557 125.044 291.549 125.076 291.53C125.109 291.511 125.136 291.483 125.153 291.45C125.174 291.42 125.185 291.385 125.185 291.349C125.185 291.313 125.174 291.278 125.153 291.248C124.934 291.003 122.979 288.827 122.006 289.012C121.898 289.035 121.797 289.087 121.714 289.16C121.631 289.234 121.569 289.328 121.533 289.433C121.457 289.597 121.422 289.777 121.433 289.958C121.444 290.138 121.499 290.313 121.594 290.468C121.928 290.872 122.388 291.153 122.9 291.266ZM124.53 291.16C123.163 291.055 122.19 290.722 121.901 290.283C121.842 290.174 121.811 290.052 121.811 289.928C121.811 289.804 121.842 289.682 121.901 289.573C121.953 289.433 122.023 289.406 122.085 289.397C122.584 289.283 123.724 290.318 124.53 291.196V291.16Z" fill="#C8A5EE"/>
<path d="M124.925 291.546C124.959 291.555 124.996 291.555 125.03 291.546C125.064 291.538 125.095 291.52 125.12 291.496C125.144 291.471 125.162 291.44 125.17 291.406C125.17 291.318 125.714 289.108 125.074 288.143C124.996 288.026 124.893 287.926 124.774 287.85C124.655 287.775 124.521 287.725 124.381 287.705C124.245 287.667 124.101 287.676 123.971 287.73C123.84 287.784 123.732 287.88 123.663 288.003C123.224 288.792 124.206 290.862 124.846 291.511C124.869 291.529 124.896 291.541 124.925 291.546ZM124.39 288.082C124.54 288.124 124.669 288.221 124.75 288.354C125.17 288.968 124.995 290.301 124.881 290.985C124.294 290.187 123.733 288.669 124.004 288.205C124.004 288.161 124.083 288.064 124.329 288.099L124.39 288.082Z" fill="#C8A5EE"/>
<path d="M185.11 47.0825C185.017 47.0675 184.922 47.074 184.831 47.1014C184.741 47.1288 184.658 47.1764 184.589 47.2406C184.52 47.3048 184.466 47.384 184.432 47.4721C184.397 47.5602 184.384 47.6549 184.392 47.7491C184.698 52.4503 177.379 60.9055 175.626 86.2272C174.583 101.629 173.627 149.65 174.329 174.63C174.339 174.957 174.424 175.279 174.576 175.569C174.729 175.859 174.946 176.11 175.211 176.304C175.475 176.497 175.78 176.628 176.103 176.686C176.425 176.744 176.757 176.728 177.072 176.638C190.01 173.025 196.12 181.787 198.61 171.455C198.478 159.079 194.735 114.645 195.699 104.111C196.664 93.5773 200.67 64.9577 201.669 57.3269C202.554 50.6961 188.731 47.7403 185.11 47.0825Z" fill="#C8A5EE"/>
<path opacity="0.7" d="M185.11 47.0825C185.017 47.0675 184.922 47.074 184.831 47.1014C184.741 47.1288 184.658 47.1764 184.589 47.2406C184.52 47.3048 184.466 47.384 184.432 47.4721C184.397 47.5602 184.384 47.6549 184.392 47.7491C184.698 52.4503 177.379 60.9055 175.626 86.2272C174.583 101.629 173.627 149.65 174.329 174.63C174.339 174.957 174.424 175.279 174.576 175.569C174.729 175.859 174.946 176.11 175.211 176.304C175.475 176.497 175.78 176.628 176.103 176.686C176.425 176.744 176.757 176.728 177.072 176.638C190.01 173.025 196.12 181.787 198.61 171.455C198.478 159.079 194.735 114.645 195.699 104.111C196.664 93.5773 200.67 64.9577 201.669 57.3269C202.554 50.6961 188.731 47.7403 185.11 47.0825Z" fill="white"/>
<path opacity="0.2" d="M193.639 68.545C193.07 72.4568 192.851 88.2621 196.611 95.8665C197.242 90.6039 198.066 84.3502 198.864 78.3246L193.639 68.545Z" fill="#C8A5EE"/>
<path d="M199.013 136.897L195.279 137.336L191.974 143.238C191.793 143.558 191.68 143.912 191.644 144.277C191.608 144.643 191.649 145.012 191.764 145.361L192.956 148.992C193.158 149.614 193.584 150.137 194.151 150.462C194.719 150.786 195.386 150.887 196.024 150.746L197.689 150.395C198.301 150.271 198.849 149.933 199.235 149.441C199.62 148.949 199.818 148.336 199.793 147.712L199.688 144.484C199.688 144.484 202.651 137.634 199.013 136.897Z" fill="#FFB573"/>
<path d="M201.064 54.3799C202.256 57.8883 203.361 61.3528 204.456 64.8612C205.552 68.3696 206.648 71.8779 207.682 75.3863C208.717 78.8947 209.716 82.482 210.636 86.1395C211.092 87.9726 211.513 89.8233 211.916 91.7617C212.1 92.7352 212.284 93.7264 212.433 94.7789C212.503 95.3227 212.582 95.8226 212.626 96.4278L212.705 97.3049L212.749 98.296C212.766 98.6291 212.766 98.9629 212.749 99.2959C212.749 99.6468 212.749 99.9801 212.705 100.252L212.626 101.129L212.53 101.918C212.407 102.98 212.249 103.945 212.091 104.909C211.776 106.821 211.408 108.663 211.031 110.488C210.277 114.136 209.435 117.706 208.585 121.258C207.735 124.811 206.832 128.354 205.955 131.889L203.326 142.493L190.633 139.046C192.596 132.196 194.385 125.223 196.041 118.294C196.848 114.785 197.602 111.347 198.277 107.918C198.61 106.164 198.925 104.497 199.153 102.848C199.285 102.024 199.39 101.208 199.46 100.471C199.528 99.8892 199.552 99.3027 199.53 98.717V98.3487L199.469 97.875C199.469 97.5768 199.364 97.1821 199.311 96.8401C199.188 96.1033 199.03 95.3227 198.855 94.5245C198.496 92.9282 198.066 91.2793 197.602 89.6216C196.725 86.2974 195.612 82.9293 194.481 79.5788C192.246 72.8778 189.73 66.133 187.135 59.5723L201.064 54.3799Z" fill="#C8A5EE"/>
<path opacity="0.7" d="M201.064 54.3799C202.256 57.8883 203.361 61.3528 204.456 64.8612C205.552 68.3696 206.648 71.8779 207.682 75.3863C208.717 78.8947 209.716 82.482 210.636 86.1395C211.092 87.9726 211.513 89.8233 211.916 91.7617C212.1 92.7352 212.284 93.7264 212.433 94.7789C212.503 95.3227 212.582 95.8226 212.626 96.4278L212.705 97.3049L212.749 98.296C212.766 98.6291 212.766 98.9629 212.749 99.2959C212.749 99.6468 212.749 99.9801 212.705 100.252L212.626 101.129L212.53 101.918C212.407 102.98 212.249 103.945 212.091 104.909C211.776 106.821 211.408 108.663 211.031 110.488C210.277 114.136 209.435 117.706 208.585 121.258C207.735 124.811 206.832 128.354 205.955 131.889L203.326 142.493L190.633 139.046C192.596 132.196 194.385 125.223 196.041 118.294C196.848 114.785 197.602 111.347 198.277 107.918C198.61 106.164 198.925 104.497 199.153 102.848C199.285 102.024 199.39 101.208 199.46 100.471C199.528 99.8892 199.552 99.3027 199.53 98.717V98.3487L199.469 97.875C199.469 97.5768 199.364 97.1821 199.311 96.8401C199.188 96.1033 199.03 95.3227 198.855 94.5245C198.496 92.9282 198.066 91.2793 197.602 89.6216C196.725 86.2974 195.612 82.9293 194.481 79.5788C192.246 72.8778 189.73 66.133 187.135 59.5723L201.064 54.3799Z" fill="white"/>
<path d="M168.061 46.4246C168.254 46.4232 168.443 46.4766 168.606 46.5786C168.77 46.6806 168.901 46.827 168.985 47.0007C169.068 47.1744 169.101 47.3683 169.079 47.5598C169.056 47.7513 168.98 47.9325 168.859 48.0824C166.772 50.5031 165.458 53.8273 162.986 64.4928C160.005 77.3598 153.659 142.098 152.467 173.823C152.461 174.086 152.398 174.345 152.282 174.582C152.167 174.819 152.001 175.028 151.797 175.195C151.593 175.362 151.355 175.482 151.1 175.548C150.845 175.614 150.578 175.624 150.319 175.577C144.131 174.437 139.888 177.436 139.213 173.463C138.468 169.078 141.247 127.188 146.445 107.488C145.63 90.0163 148.575 54.9675 154.457 50.3102C157.647 47.7227 164.432 46.486 168.061 46.4246Z" fill="#C8A5EE"/>
<path opacity="0.7" d="M168.061 46.4246C168.254 46.4232 168.443 46.4766 168.606 46.5786C168.77 46.6806 168.901 46.827 168.985 47.0007C169.068 47.1744 169.101 47.3683 169.079 47.5598C169.056 47.7513 168.98 47.9325 168.859 48.0824C166.772 50.5031 165.458 53.8273 162.986 64.4928C160.005 77.3598 153.659 142.098 152.467 173.823C152.461 174.086 152.398 174.345 152.282 174.582C152.167 174.819 152.001 175.028 151.797 175.195C151.593 175.362 151.355 175.482 151.1 175.548C150.845 175.614 150.578 175.624 150.319 175.577C144.131 174.437 139.888 177.436 139.213 173.463C138.468 169.078 141.247 127.188 146.445 107.488C145.63 90.0163 148.575 54.9675 154.457 50.3102C157.647 47.7227 164.432 46.486 168.061 46.4246Z" fill="white"/>
<path d="M171.471 55.1167C171.471 55.1167 163.897 76.4037 161.233 94.2439C161.022 99.0942 163.328 108.488 165.195 112.584C169.095 104.085 171.532 99.0767 171.918 94.2439C172.54 86.9727 173.566 55.257 173.566 55.257L171.471 55.1167Z" fill="#263238"/>
<path d="M187.319 80.4384C187.243 80.4358 187.169 80.4082 187.109 80.3596C187.05 80.3111 187.008 80.2443 186.99 80.1696C186.972 80.0949 186.979 80.0164 187.01 79.9461C187.041 79.8758 187.094 79.8177 187.162 79.7806L188.599 79.0263C189.941 78.3355 191.041 77.252 191.752 75.9201C192.463 74.5882 192.751 73.0711 192.579 71.571L191.019 57.4322C190.904 56.3782 190.437 55.3937 189.695 54.6375C188.952 53.8812 187.976 53.3971 186.925 53.2634C185.874 53.1296 184.809 53.354 183.901 53.9002C182.993 54.4465 182.295 55.2828 181.92 56.2744L176.871 69.5624C176.327 70.9707 176.224 72.5112 176.577 73.9792C176.929 75.4471 177.719 76.7731 178.843 77.7808L180.053 78.8771C180.117 78.9427 180.153 79.0309 180.153 79.1227C180.153 79.2146 180.117 79.3027 180.053 79.3683C179.987 79.4326 179.899 79.4686 179.807 79.4686C179.715 79.4686 179.627 79.4326 179.562 79.3683L178.352 78.2807C177.128 77.1749 176.269 75.7229 175.889 74.1173C175.508 72.5118 175.624 70.8284 176.222 69.2905L181.315 56.0288C181.75 54.8958 182.552 53.9415 183.593 53.3189C184.635 52.6964 185.855 52.4415 187.058 52.5951C188.261 52.7488 189.378 53.3021 190.23 54.1664C191.081 55.0307 191.618 56.156 191.755 57.362L193.315 71.492C193.5 73.1362 193.179 74.7977 192.396 76.255C191.613 77.7123 190.405 78.8962 188.932 79.649L187.495 80.3945C187.443 80.4281 187.381 80.4435 187.319 80.4384Z" fill="#263238"/>
<path d="M191.667 60.5196C191.584 60.5202 191.503 60.4903 191.44 60.4353C191.377 60.3804 191.336 60.3043 191.325 60.2213C191.121 59.0842 190.544 58.0476 189.685 57.2755C188.827 56.5034 187.735 56.04 186.583 55.9587C184.637 55.7131 181.99 56.327 180.929 58.8882C180.914 58.9336 180.89 58.9753 180.858 59.011C180.826 59.0466 180.787 59.0753 180.743 59.0953C180.7 59.1153 180.653 59.1262 180.605 59.1273C180.557 59.1283 180.509 59.1196 180.465 59.1016C180.421 59.0836 180.381 59.0568 180.347 59.0226C180.313 58.9885 180.287 58.9479 180.27 58.9032C180.253 58.8586 180.245 58.8109 180.246 58.763C180.248 58.7152 180.26 58.6682 180.281 58.625C180.873 57.478 181.804 56.5411 182.947 55.9411C184.089 55.3412 185.389 55.1072 186.669 55.2709C187.949 55.4346 189.148 55.988 190.103 56.8563C191.058 57.7245 191.724 58.8656 192.009 60.1249C192.022 60.2144 191.998 60.3052 191.944 60.3775C191.89 60.4498 191.809 60.4978 191.72 60.5108L191.667 60.5196Z" fill="#263238"/>
<path d="M186.951 53.266C186.906 53.2638 186.861 53.2524 186.819 53.2326C186.778 53.2127 186.741 53.1848 186.711 53.1504C186.681 53.1161 186.658 53.076 186.643 53.0326C186.629 52.9891 186.623 52.9432 186.627 52.8976C186.732 51.1873 186.487 48.0736 184.874 47.2667C184.791 47.2236 184.729 47.1495 184.701 47.0607C184.673 46.9719 184.682 46.8756 184.725 46.793C184.768 46.7104 184.842 46.6483 184.931 46.6204C185.019 46.5924 185.116 46.6009 185.198 46.6439C187.53 47.8455 187.319 52.424 187.284 52.9415C187.28 53.0276 187.243 53.1089 187.181 53.1691C187.12 53.2293 187.037 53.2639 186.951 53.266Z" fill="#263238"/>
<path d="M180.596 79.228C180.508 79.8858 180.096 80.3682 179.667 80.3068C179.237 80.2454 178.957 79.6841 179.045 79.035C179.132 78.386 179.535 77.8948 179.965 77.9562C180.394 78.0176 180.675 78.5789 180.596 79.228Z" fill="#263238"/>
<path d="M160.216 65.0103C159.663 66.4049 158.463 67.2469 157.586 66.8873C156.709 66.5276 156.368 65.1331 156.92 63.7034C157.472 62.2737 158.673 61.4668 159.55 61.8264C160.426 62.186 160.759 63.6157 160.216 65.0103Z" fill="#263238"/>
<path d="M157.332 64.1069H157.262C157.171 64.0879 157.092 64.0339 157.041 63.9567C156.99 63.8795 156.972 63.7853 156.99 63.6946C158.147 57.9321 162.933 48.784 167.149 46.1527C167.188 46.1197 167.233 46.0953 167.281 46.0813C167.33 46.0672 167.381 46.0639 167.431 46.0714C167.481 46.0789 167.528 46.0972 167.571 46.1249C167.613 46.1526 167.649 46.1891 167.676 46.232C167.702 46.2748 167.72 46.323 167.726 46.3731C167.733 46.4233 167.728 46.4742 167.713 46.5225C167.698 46.5708 167.673 46.6153 167.639 46.6529C167.605 46.6905 167.564 46.7203 167.518 46.7404C163.442 49.3103 158.804 58.1426 157.674 63.8174C157.659 63.898 157.617 63.971 157.555 64.0239C157.492 64.0767 157.414 64.1061 157.332 64.1069Z" fill="#263238"/>
<path d="M161.215 65.2997C160.812 66.5013 159.777 67.2469 158.901 66.9574C158.024 66.668 157.63 65.4488 158.024 64.2384C158.419 63.0281 159.462 62.2913 160.338 62.5807C161.215 62.8702 161.618 64.0893 161.215 65.2997Z" fill="white"/>
<path d="M161.276 65.4225C160.742 66.9048 159.751 67.9135 159.076 67.6679C158.401 67.4223 158.287 66.0189 158.831 64.5279C159.374 63.0368 160.356 62.0369 161.031 62.2825C161.706 62.5281 161.82 63.9315 161.276 65.4225Z" fill="#263238"/>
<path d="M188.1 80.1928C188.021 80.8418 187.6 81.3243 187.17 81.2716C186.741 81.219 186.46 80.6401 186.548 79.9911C186.636 79.342 187.048 78.8596 187.477 78.9122C187.907 78.9649 188.187 79.535 188.1 80.1928Z" fill="#263238"/>
<path d="M237.801 42.1883C240.729 50.1962 232.945 54.222 227.843 66.0189C222.742 77.8159 235.049 91.8845 253.939 92.1915C272.829 92.4984 273.425 74.3952 270.498 61.4054C267.57 48.4156 273.688 46.3019 272.391 36.3819C270.725 23.3483 251.958 13.4722 244.507 25.4358C237.88 24.813 235.242 35.1891 237.801 42.1883Z" fill="#263238"/>
<path d="M293.753 149.983V148.966C293.736 148.478 293.613 147.999 293.394 147.562L290.22 141.3L286.504 140.598C283.874 143.431 286.504 149.08 286.504 149.08V149.983C286.504 150.723 286.746 151.443 287.192 152.033C287.638 152.624 288.264 153.053 288.976 153.255L289.475 153.404C289.99 153.54 290.529 153.553 291.05 153.443C291.571 153.333 292.058 153.103 292.474 152.77C292.89 152.438 293.222 152.013 293.444 151.529C293.666 151.045 293.772 150.515 293.753 149.983Z" fill="#FFC3BD"/>
<path d="M278.001 69.4221L279.368 79.0175L280.806 88.5866C281.279 91.788 281.779 94.9718 282.287 98.1645L283.804 107.672L283.988 108.611C284.049 108.918 284.155 109.312 284.233 109.654L284.496 110.733L284.803 111.847C285.198 113.321 285.68 114.847 286.101 116.355C286.977 119.381 287.985 122.442 288.976 125.486C290.992 131.564 293.096 137.669 295.34 143.668L282.945 148.054L276.739 129.512C275.713 126.416 274.67 123.32 273.679 120.162C273.189 118.574 272.698 117.004 272.233 115.364L271.874 114.145L271.532 112.873C271.418 112.435 271.295 112.049 271.19 111.566L270.866 110.128L269.034 100.48C268.449 97.2991 267.839 94.1181 267.202 90.9372L265.326 81.3944L263.371 71.9218L278.001 69.4221Z" fill="#C8A5EE"/>
<path opacity="0.6" d="M278.001 69.4221L279.368 79.0175L280.806 88.5866C281.279 91.788 281.779 94.9718 282.287 98.1645L283.804 107.672L283.988 108.611C284.049 108.918 284.155 109.312 284.233 109.654L284.496 110.733L284.803 111.847C285.198 113.321 285.68 114.847 286.101 116.355C286.977 119.381 287.985 122.442 288.976 125.486C290.992 131.564 293.096 137.669 295.34 143.668L282.945 148.054L276.739 129.512C275.713 126.416 274.67 123.32 273.679 120.162C273.189 118.574 272.698 117.004 272.233 115.364L271.874 114.145L271.532 112.873C271.418 112.435 271.295 112.049 271.19 111.566L270.866 110.128L269.034 100.48C268.449 97.2991 267.839 94.1181 267.202 90.9372L265.326 81.3944L263.371 71.9218L278.001 69.4221Z" fill="white"/>
<path d="M276.029 68.6853C276.441 73.3602 276.073 84.9905 271.383 113.821H238.95C239.467 101.296 239.502 93.3141 234.128 69.4133C234.006 68.8758 233.996 68.319 234.097 67.7773C234.198 67.2355 234.41 66.7203 234.718 66.2633C235.026 65.8064 235.424 65.4174 235.888 65.1204C236.352 64.8235 236.872 64.6248 237.416 64.5366C240.582 64.0162 243.775 63.6678 246.979 63.4929C251.887 63.1417 256.815 63.1417 261.723 63.4929C265.755 63.8613 270.129 64.5893 272.777 65.0717C273.639 65.2355 274.424 65.6775 275.011 66.3302C275.599 66.9828 275.956 67.8101 276.029 68.6853Z" fill="#263238"/>
<path d="M248.408 46.8807C249.337 51.6258 250.266 60.3266 246.944 63.4929C246.944 63.4929 251.099 68.545 257.463 68.545C263.827 68.545 261.697 63.4929 261.697 63.4929C256.437 62.2299 256.542 58.3005 257.463 54.6167L248.408 46.8807Z" fill="#FFC3BD"/>
<path opacity="0.2" d="M252.098 50.0383L257.454 54.6079C257.227 55.4703 257.074 56.3506 256.998 57.2392C254.973 56.9498 251.8 55.2219 251.362 53.0204C251.16 51.9767 251.923 50.5294 252.098 50.0383Z" fill="black"/>
<path d="M242.824 37.566C244.06 45.4072 244.419 48.7489 248.785 52.4152C255.359 57.9321 264.712 54.6957 265.843 46.6439C266.86 39.3991 264.66 27.7864 256.648 25.3919C254.883 24.8547 253.01 24.7778 251.206 25.1685C249.403 25.5592 247.73 26.4044 246.345 27.6241C244.96 28.8437 243.91 30.3973 243.293 32.1373C242.677 33.8772 242.516 35.746 242.824 37.566Z" fill="#FFC3BD"/>
<path d="M244.13 43.2145C248.618 38.7676 250.161 32.5841 249.74 30.058C254.062 31.2597 257.235 29.5581 257.042 28.8213C260.093 31.8035 265.624 34.1629 265.001 30.9527C264.379 27.7425 260.285 21.8221 251.748 23.9359C243.21 26.0497 239.923 34.8207 240.045 38.3817C240.168 41.9427 244.13 43.2145 244.13 43.2145Z" fill="#263238"/>
<path d="M254.071 38.4518C254.132 39.1009 254.518 39.5833 254.947 39.5482C255.377 39.5131 255.657 38.9518 255.596 38.3115C255.534 37.6712 255.14 37.1801 254.719 37.2151C254.298 37.2502 254.071 37.8116 254.071 38.4518Z" fill="#263238"/>
<path d="M261.355 37.7589C261.416 38.3992 261.811 38.8904 262.231 38.8465C262.652 38.8027 262.941 38.2589 262.88 37.6186C262.819 36.9783 262.424 36.4872 262.004 36.5222C261.583 36.5573 261.294 37.1187 261.355 37.7589Z" fill="#263238"/>
<path d="M261.828 36.5749L263.327 35.9872C263.327 35.9872 262.643 37.2678 261.828 36.5749Z" fill="#263238"/>
<path d="M259.234 39.1272C259.942 40.5391 260.842 41.8465 261.907 43.0127C261.602 43.2769 261.244 43.4717 260.856 43.5838C260.469 43.6959 260.062 43.7225 259.663 43.6618L259.234 39.1272Z" fill="#ED847E"/>
<path d="M256.402 46.486C256.72 46.5078 257.04 46.5078 257.358 46.486C257.407 46.4795 257.452 46.4538 257.484 46.4145C257.515 46.3752 257.529 46.3254 257.524 46.2755C257.523 46.2509 257.517 46.2267 257.506 46.2045C257.495 46.1824 257.48 46.1628 257.461 46.1471C257.442 46.1313 257.42 46.1198 257.396 46.1132C257.372 46.1066 257.347 46.1052 257.323 46.1089C256.525 46.2013 255.717 46.105 254.963 45.8278C254.209 45.5505 253.531 45.1 252.984 44.5126C252.95 44.4818 252.906 44.4641 252.86 44.4627C252.815 44.4612 252.77 44.476 252.734 44.5044C252.698 44.5328 252.674 44.5731 252.665 44.618C252.656 44.6629 252.663 44.7094 252.686 44.7494C253.16 45.2702 253.732 45.6918 254.37 45.9898C255.008 46.2879 255.699 46.4566 256.402 46.486Z" fill="#263238"/>
<path d="M241.088 43.9425C241.674 45.3622 242.795 46.4937 244.209 47.0912C246.085 47.8631 247.268 46.2141 246.944 44.3459C246.655 42.5917 245.322 40.1622 243.341 40.1973C242.91 40.2183 242.491 40.3453 242.12 40.567C241.749 40.7888 241.439 41.0984 241.216 41.4685C240.994 41.8387 240.866 42.258 240.843 42.6895C240.821 43.121 240.905 43.5513 241.088 43.9425Z" fill="#FFC3BD"/>
<path d="M251.572 35.0838C251.648 35.1105 251.73 35.113 251.807 35.091C251.884 35.0689 251.952 35.0235 252.002 34.961C253.106 33.6015 255.359 33.7331 255.377 33.7331C255.476 33.738 255.574 33.7042 255.649 33.6388C255.724 33.5734 255.771 33.4815 255.78 33.3822C255.785 33.3324 255.779 33.2822 255.764 33.2345C255.749 33.1869 255.724 33.1428 255.691 33.1051C255.658 33.0673 255.618 33.0367 255.573 33.0149C255.528 32.9932 255.479 32.9809 255.429 32.9788C255.324 32.9788 252.756 32.8209 251.415 34.4874C251.352 34.5659 251.323 34.6657 251.332 34.7656C251.342 34.8654 251.391 34.9576 251.467 35.0224L251.572 35.0838Z" fill="#263238"/>
<path d="M263.993 34.2856C264.077 34.2907 264.159 34.2681 264.228 34.2213C264.297 34.1745 264.348 34.1062 264.374 34.0271C264.4 33.948 264.399 33.8624 264.372 33.7838C264.344 33.7053 264.291 33.6381 264.221 33.5927C263.731 33.2463 263.165 33.0219 262.57 32.938C261.976 32.8541 261.37 32.9132 260.803 33.1103C260.71 33.1509 260.638 33.2258 260.6 33.3193C260.562 33.4127 260.563 33.5171 260.601 33.6103C260.62 33.6567 260.648 33.6988 260.684 33.7342C260.72 33.7696 260.762 33.7975 260.808 33.8163C260.855 33.8351 260.905 33.8444 260.955 33.8436C261.005 33.8429 261.055 33.8322 261.101 33.812C261.551 33.6619 262.031 33.621 262.5 33.6926C262.97 33.7643 263.415 33.9465 263.801 34.2243C263.858 34.2615 263.925 34.2827 263.993 34.2856Z" fill="#263238"/>
<path d="M291.535 295.397L299.609 295.011L297.215 276.767L289.151 277.162L291.535 295.397Z" fill="#FFC3BD"/>
<g opacity="0.2">
<path d="M297.216 276.776L298.451 286.179L290.378 286.564L289.142 277.162L297.216 276.776Z" fill="black"/>
</g>
<path d="M271.383 113.821C271.383 113.821 281.542 175.437 285.68 199.46C289.993 224.44 299.705 283.232 299.705 283.232L289.028 284.986C289.028 284.986 274.635 226.133 268.867 201.662C262.608 174.954 247.444 139.142 247.601 113.891L271.383 113.821Z" fill="#C8A5EE"/>
<path opacity="0.2" d="M255.07 132.731C253.545 130.512 250.608 127.398 248.355 124.837C250.398 140.537 256.244 158.754 261.583 175.91C263.003 162.841 262.196 143.019 255.07 132.731Z" fill="black"/>
<path d="M241.728 294.16H249.723L250.257 275.636H242.254L241.728 294.16Z" fill="#FFC3BD"/>
<path d="M250.1 292.95H241.115C240.959 292.948 240.808 293.004 240.691 293.105C240.573 293.207 240.496 293.348 240.475 293.502L239.449 300.607C239.431 300.787 239.451 300.97 239.507 301.142C239.563 301.314 239.655 301.473 239.777 301.608C239.898 301.742 240.046 301.85 240.212 301.924C240.377 301.998 240.557 302.036 240.738 302.036C243.867 301.975 245.375 301.791 249.328 301.791C251.756 301.791 256.779 302.045 260.136 302.045C263.494 302.045 263.643 298.73 262.275 298.423C256.008 297.081 253.51 295.221 251.432 293.441C251.058 293.128 250.587 292.954 250.1 292.95Z" fill="#263238"/>
<g opacity="0.2">
<path d="M250.249 275.645L249.977 285.196H241.983L242.254 275.645H250.249Z" fill="black"/>
</g>
<path d="M262.258 113.821C262.258 113.821 259.014 176.226 256.823 200.521C254.535 225.799 251.783 283.082 251.783 283.082H240.966C240.966 283.082 239.037 226.019 239.791 201.092C240.606 173.902 234.076 139.072 238.485 113.821H262.258Z" fill="#C8A5EE"/>
<path d="M240.028 283.468L252.712 283.705L252.905 275.969L239.975 276.776L240.028 283.468Z" fill="#263238"/>
<path d="M253.098 294.379C253.78 294.442 254.464 294.269 255.035 293.888C255.164 293.773 255.262 293.628 255.322 293.466C255.381 293.304 255.4 293.13 255.377 292.958C255.37 292.855 255.338 292.755 255.283 292.668C255.228 292.581 255.151 292.509 255.061 292.459C254.079 291.915 250.889 293.546 250.529 293.739C250.496 293.758 250.469 293.786 250.451 293.821C250.434 293.855 250.428 293.894 250.433 293.932C250.438 293.971 250.455 294.007 250.482 294.035C250.508 294.064 250.543 294.083 250.582 294.09C251.409 294.267 252.252 294.364 253.098 294.379ZM254.526 292.722C254.647 292.718 254.767 292.742 254.877 292.792C254.914 292.811 254.945 292.84 254.966 292.876C254.988 292.911 255 292.952 255 292.994C255.019 293.105 255.009 293.219 254.97 293.325C254.932 293.431 254.867 293.526 254.781 293.599C254.298 294.037 252.984 294.116 251.213 293.818C252.247 293.266 253.367 292.895 254.526 292.722Z" fill="#C8A5EE"/>
<path d="M250.617 294.099H250.696C251.651 293.669 253.536 291.941 253.387 291.038C253.387 290.818 253.203 290.555 252.677 290.503C252.489 290.481 252.298 290.498 252.117 290.554C251.936 290.61 251.768 290.703 251.625 290.827C250.626 291.66 250.442 293.818 250.433 293.906C250.429 293.939 250.435 293.973 250.449 294.004C250.463 294.035 250.484 294.061 250.512 294.081C250.545 294.096 250.581 294.102 250.617 294.099ZM252.528 290.853H252.642C252.984 290.853 253.01 291.02 253.01 291.073C253.106 291.617 251.827 292.967 250.854 293.555C250.929 292.648 251.284 291.786 251.87 291.09C252.053 290.934 252.287 290.85 252.528 290.853Z" fill="#C8A5EE"/>
<path d="M299.512 292.95H290.527C290.455 292.945 290.383 292.957 290.316 292.983C290.249 293.01 290.188 293.051 290.139 293.104C290.089 293.157 290.052 293.22 290.03 293.289C290.008 293.358 290.001 293.431 290.01 293.502L290.466 300.607C290.519 300.993 290.706 301.347 290.995 301.609C291.284 301.87 291.655 302.022 292.044 302.036C295.164 301.975 296.637 301.791 300.582 301.791C303.018 301.791 308.094 302.045 311.451 302.045C314.808 302.045 314.291 298.73 312.836 298.423C306.288 297.081 303.43 295.221 300.95 293.441C300.532 293.134 300.03 292.962 299.512 292.95Z" fill="#263238"/>
<path d="M302.51 294.379C303.196 294.442 303.882 294.269 304.456 293.888C304.584 293.772 304.681 293.627 304.741 293.465C304.801 293.303 304.82 293.13 304.798 292.958C304.79 292.855 304.756 292.754 304.699 292.667C304.643 292.58 304.565 292.508 304.474 292.459C303.492 291.915 300.31 293.546 299.95 293.739C299.915 293.757 299.887 293.785 299.868 293.819C299.849 293.854 299.841 293.893 299.845 293.932C299.852 293.97 299.87 294.005 299.897 294.033C299.923 294.061 299.957 294.081 299.994 294.09C300.822 294.267 301.664 294.364 302.51 294.379ZM303.939 292.722C304.06 292.717 304.18 292.741 304.29 292.792C304.327 292.811 304.36 292.839 304.383 292.875C304.406 292.91 304.419 292.951 304.421 292.994C304.436 293.105 304.424 293.218 304.386 293.323C304.348 293.429 304.285 293.523 304.202 293.599C303.711 294.037 302.396 294.116 300.625 293.818C301.66 293.267 302.78 292.896 303.939 292.722Z" fill="#C8A5EE"/>
<path d="M300.038 294.099H300.117C301.064 293.669 302.948 291.941 302.799 291.038C302.799 290.818 302.615 290.555 302.089 290.503C301.902 290.481 301.713 290.499 301.533 290.555C301.354 290.61 301.188 290.703 301.046 290.827C300.038 291.66 299.854 293.818 299.845 293.906C299.844 293.939 299.851 293.972 299.864 294.003C299.878 294.033 299.899 294.06 299.924 294.081C299.96 294.096 299.999 294.102 300.038 294.099ZM301.94 290.853H302.054C302.396 290.853 302.422 291.02 302.431 291.073C302.519 291.617 301.239 292.967 300.266 293.555C300.344 292.649 300.699 291.788 301.283 291.09C301.467 290.935 301.7 290.851 301.94 290.853Z" fill="#C8A5EE"/>
<path d="M288.134 285.486L300.66 283.468L299.249 276.767L286.837 279.697L288.134 285.486Z" fill="#263238"/>
<path d="M254.57 37.2678L256.069 36.6801C256.069 36.6801 255.394 37.9607 254.57 37.2678Z" fill="#263238"/>
<path d="M238.424 111.917L237.6 114.829C237.486 115.049 237.749 115.285 238.126 115.285H271.541C271.839 115.285 272.075 115.136 272.093 114.952L272.391 112.049C272.391 111.847 272.154 111.672 271.839 111.672H238.958C238.856 111.663 238.752 111.681 238.659 111.724C238.565 111.767 238.484 111.834 238.424 111.917Z" fill="#263238"/>
<path d="M242.956 115.592H242.079C241.904 115.592 241.772 115.505 241.781 115.399L242.193 111.619C242.193 111.505 242.36 111.417 242.535 111.417H243.411C243.587 111.417 243.718 111.505 243.709 111.619L243.289 115.399C243.28 115.505 243.131 115.592 242.956 115.592Z" fill="#C8A5EE"/>
<path d="M269.069 115.592H268.192C268.017 115.592 267.877 115.505 267.894 115.399L268.306 111.619C268.306 111.505 268.473 111.417 268.648 111.417H269.525C269.7 111.417 269.831 111.505 269.823 111.619L269.411 115.399C269.393 115.505 269.244 115.592 269.069 115.592Z" fill="#C8A5EE"/>
<path d="M256.06 115.592H255.184C255.009 115.592 254.877 115.505 254.886 115.399L255.298 111.619C255.298 111.505 255.464 111.417 255.64 111.417H256.516C256.692 111.417 256.823 111.505 256.805 111.619L256.393 115.399C256.393 115.505 256.236 115.592 256.06 115.592Z" fill="#C8A5EE"/>
<path d="M245.541 63.2298C240.449 63.6946 232.665 62.7298 232.901 70.5448C233.138 78.3597 231.621 99.0591 232.025 108.751C232.428 118.443 229.903 181.199 233.988 199.39C234.707 202.591 261.092 202.179 264.283 201.872V198.987C264.283 198.987 283.453 196.408 288.196 197.232C287.784 186.304 277.168 131.099 276.756 115.592C276.344 100.085 278.089 73.4392 277.983 69.2116C277.878 64.984 269.481 63.1245 264.335 63.2298C265.475 67.0451 262.959 74.211 258.936 82.2014C249.039 72.5533 246.12 67.7644 245.541 63.2298Z" fill="#C8A5EE"/>
<path opacity="0.7" d="M245.541 63.2298C240.449 63.6946 232.665 62.7298 232.901 70.5448C233.138 78.3597 231.621 99.0591 232.025 108.751C232.428 118.443 229.903 181.199 233.988 199.39C234.707 202.591 261.092 202.179 264.283 201.872V198.987C264.283 198.987 283.453 196.408 288.196 197.232C287.784 186.304 277.168 131.099 276.756 115.592C276.344 100.085 278.089 73.4392 277.983 69.2116C277.878 64.984 269.481 63.1245 264.335 63.2298C265.475 67.0451 262.959 74.211 258.936 82.2014C249.039 72.5533 246.12 67.7644 245.541 63.2298Z" fill="white"/>
<path opacity="0.2" d="M235.847 81.7628L232.586 84.0696C232.332 90.8232 231.99 98.3925 231.955 104.243C234.988 97.533 236.697 87.8498 235.847 81.7628Z" fill="#C8A5EE"/>
<path d="M246.234 74.7548C246.068 75.0009 245.89 75.2381 245.699 75.4653L245.515 75.6758L245.419 75.781L245.243 75.9652L244.893 76.3423L244.192 77.123C243.718 77.6404 243.262 78.1755 242.807 78.7193C241.895 79.8069 241.018 80.9149 240.177 82.0435C238.457 84.2972 236.857 86.6393 235.382 89.0602C232.483 93.5295 230.389 98.4719 229.193 103.664C228.972 104.822 228.835 105.994 228.781 107.172C228.836 107.758 229.006 108.327 229.281 108.847C230.394 111.205 231.733 113.449 233.278 115.549C234.9 117.864 236.741 120.118 238.625 122.346C239.572 123.469 240.554 124.556 241.544 125.635C242.535 126.714 243.569 127.819 244.533 128.775L235.084 137.914C233.936 136.66 232.919 135.52 231.858 134.318L228.764 130.696C226.713 128.266 224.74 125.74 222.794 123.092C220.682 120.294 218.855 117.291 217.342 114.128C216.9 113.148 216.522 112.14 216.211 111.11C216.029 110.497 215.885 109.873 215.782 109.242C215.714 108.88 215.668 108.514 215.642 108.146C215.606 107.761 215.592 107.374 215.598 106.988C215.618 105.105 215.78 103.225 216.08 101.366C216.687 97.8533 217.668 94.4159 219.008 91.1126C220.268 87.9852 221.732 84.9439 223.39 82.0084C225.003 79.114 226.774 76.3511 228.606 73.6497C229.535 72.2989 230.482 70.9745 231.472 69.6677L232.971 67.7117L233.752 66.7294L234.146 66.2382L234.348 66.0014L234.435 65.8874L234.313 66.0277C234.155 66.2294 234.006 66.4312 233.866 66.6417L246.234 74.7548Z" fill="#C8A5EE"/>
<path opacity="0.7" d="M246.234 74.7548C246.068 75.0009 245.89 75.2381 245.699 75.4653L245.515 75.6758L245.419 75.781L245.243 75.9652L244.893 76.3423L244.192 77.123C243.718 77.6404 243.262 78.1755 242.807 78.7193C241.895 79.8069 241.018 80.9149 240.177 82.0435C238.457 84.2972 236.857 86.6393 235.382 89.0602C232.483 93.5295 230.389 98.4719 229.193 103.664C228.972 104.822 228.835 105.994 228.781 107.172C228.836 107.758 229.006 108.327 229.281 108.847C230.394 111.205 231.733 113.449 233.278 115.549C234.9 117.864 236.741 120.118 238.625 122.346C239.572 123.469 240.554 124.556 241.544 125.635C242.535 126.714 243.569 127.819 244.533 128.775L235.084 137.914C233.936 136.66 232.919 135.52 231.858 134.318L228.764 130.696C226.713 128.266 224.74 125.74 222.794 123.092C220.682 120.294 218.855 117.291 217.342 114.128C216.9 113.148 216.522 112.14 216.211 111.11C216.029 110.497 215.885 109.873 215.782 109.242C215.714 108.88 215.668 108.514 215.642 108.146C215.606 107.761 215.592 107.374 215.598 106.988C215.618 105.105 215.78 103.225 216.08 101.366C216.687 97.8533 217.668 94.4159 219.008 91.1126C220.268 87.9852 221.732 84.9439 223.39 82.0084C225.003 79.114 226.774 76.3511 228.606 73.6497C229.535 72.2989 230.482 70.9745 231.472 69.6677L232.971 67.7117L233.752 66.7294L234.146 66.2382L234.348 66.0014L234.435 65.8874L234.313 66.0277C234.155 66.2294 234.006 66.4312 233.866 66.6417L246.234 74.7548Z" fill="white"/>
<path opacity="0.3" d="M258.944 82.2013C259.865 100.919 264.861 166.192 264.291 198.987L265.817 198.785C265.817 198.785 263.45 148.352 262.38 126.284C261.311 104.216 258.944 82.2013 258.944 82.2013Z" fill="#C8A5EE"/>
<path opacity="0.3" d="M243.797 128.933L234.435 139.072C234.435 142.475 232.06 149.282 238.354 151.755C244.647 154.228 244.814 136.283 243.797 128.933Z" fill="#C8A5EE"/>
<path opacity="0.3" d="M274.319 128.617L278.439 138.949C278.562 142.458 279.763 149.475 277.326 152.15C274.889 154.825 274.179 136.222 274.319 128.617Z" fill="#C8A5EE"/>
<path d="M264.09 88.7182L274.372 88.648C274.474 88.6524 274.577 88.6346 274.672 88.5958C274.766 88.5569 274.852 88.498 274.922 88.423C274.992 88.348 275.045 88.2587 275.077 88.1612C275.109 88.0638 275.12 87.9606 275.108 87.8586L274.539 82.982C274.504 82.7708 274.399 82.5779 274.239 82.4357C274.079 82.2935 273.876 82.2107 273.662 82.2013L263.371 82.2627C263.269 82.2598 263.167 82.2786 263.073 82.3179C262.979 82.3572 262.894 82.4162 262.825 82.4909C262.755 82.5656 262.702 82.6543 262.669 82.7511C262.636 82.8478 262.625 82.9505 262.635 83.0521L263.204 87.9375C263.24 88.1494 263.348 88.3425 263.509 88.4846C263.67 88.6267 263.875 88.7091 264.09 88.7182Z" fill="white" stroke="#C8A5EE" stroke-width="0.5" stroke-miterlimit="10"/>
</svg>
